<svg width="793" height="105" viewBox="0 0 793 105" fill="none" xmlns="http://www.w3.org/2000/svg">
<rect width="198.25" height="105" fill="#7FA348"/>
<rect x="198.25" width="198.25" height="105" fill="#384D2B"/>
<rect x="396.5" width="198.25" height="105" fill="#EB9130"/>
<rect x="594.75" width="198.25" height="105" fill="#FFDB63"/>
<path d="M76.8928 50.3571C77.1328 50.3571 77.2528 50.4831 77.2528 50.7351V51.7971C77.2528 52.0611 77.1328 52.1931 76.8928 52.1931H75.1288L74.4448 55.0551H76.0108C76.2508 55.0551 76.3708 55.1871 76.3708 55.4511V56.5131C76.3708 56.7651 76.2508 56.8911 76.0108 56.8911H73.9948L73.4728 59.0331C73.4248 59.2851 73.2928 59.4111 73.0768 59.4111H71.9428C71.6668 59.4111 71.5648 59.2791 71.6368 59.0151L72.1588 56.8911H70.1248L69.6028 59.0331C69.5308 59.2851 69.3748 59.4111 69.1348 59.4111H68.0728C67.8088 59.4111 67.7068 59.2791 67.7668 59.0151L68.2888 56.8911H66.8488C66.5968 56.8911 66.4708 56.7651 66.4708 56.5131V55.4511C66.4708 55.1871 66.5968 55.0551 66.8488 55.0551H68.7388L69.4228 52.1931H67.7308C67.4788 52.1931 67.3528 52.0611 67.3528 51.7971V50.7351C67.3528 50.4831 67.4788 50.3571 67.7308 50.3571H69.8728L70.3948 48.2151C70.4548 47.9631 70.5868 47.8371 70.7908 47.8371H71.9068C72.1828 47.8371 72.2908 47.9691 72.2308 48.2331L71.7088 50.3571H73.7428L74.2648 48.2151C74.3368 47.9631 74.4928 47.8371 74.7328 47.8371H75.7768C76.0648 47.8371 76.1728 47.9691 76.1008 48.2331L75.5788 50.3571H76.8928ZM72.6088 55.0551L73.2928 52.1931H71.2588L70.5748 55.0551H72.6088ZM80.9238 59.4111H79.2318C79.1238 59.4111 79.0458 59.3811 78.9978 59.3211C78.9618 59.2491 78.9738 59.1531 79.0338 59.0331L82.8318 49.9251H78.6018C78.3498 49.9251 78.2238 49.7991 78.2238 49.5471V48.2151C78.2238 47.9631 78.3498 47.8371 78.6018 47.8371H84.9018C85.1538 47.8371 85.2798 47.9631 85.2798 48.2151V49.7271C85.2798 49.9671 85.1958 50.2911 85.0278 50.6991L81.5358 59.0691C81.4398 59.2971 81.2358 59.4111 80.9238 59.4111ZM88.7118 59.4111H87.1818C86.9298 59.4111 86.8038 59.2851 86.8038 59.0331V48.2151C86.8038 47.9631 86.9298 47.8371 87.1818 47.8371H92.9238C93.1638 47.8371 93.2838 47.9631 93.2838 48.2151V49.4391C93.2838 49.6911 93.1638 49.8171 92.9238 49.8171H89.3058C89.1618 49.8171 89.0898 49.8831 89.0898 50.0151V52.8051C89.0898 52.9491 89.1618 53.0211 89.3058 53.0211H92.3838C92.6358 53.0211 92.7618 53.1471 92.7618 53.3991V54.6051C92.7618 54.8691 92.6358 55.0011 92.3838 55.0011H89.3058C89.1618 55.0011 89.0898 55.0671 89.0898 55.1991V59.0331C89.0898 59.2851 88.9638 59.4111 88.7118 59.4111ZM96.1133 59.4111H94.3853C94.1693 59.4111 94.0973 59.2851 94.1693 59.0331L97.0133 48.2151C97.0973 47.9631 97.2773 47.8371 97.5533 47.8371H99.9473C100.247 47.8371 100.427 47.9631 100.487 48.2151L103.331 59.0331C103.403 59.2851 103.331 59.4111 103.115 59.4111H101.387C101.255 59.4111 101.165 59.3871 101.117 59.3391C101.069 59.2791 101.033 59.1771 101.009 59.0331L100.505 57.0531H96.9953L96.4913 59.0331C96.4673 59.1771 96.4253 59.2791 96.3653 59.3391C96.3173 59.3871 96.2333 59.4111 96.1133 59.4111ZM98.7233 50.0151L97.4273 55.2171H100.091L98.7953 50.0151H98.7233ZM107.699 52.6791H108.617C109.013 52.6791 109.295 52.6011 109.463 52.4451C109.643 52.2771 109.733 52.0071 109.733 51.6351V50.7891C109.733 50.4171 109.643 50.1531 109.463 49.9971C109.295 49.8291 109.013 49.7451 108.617 49.7451H107.753C107.369 49.7451 107.099 49.8291 106.943 49.9971C106.787 50.1531 106.709 50.4171 106.709 50.7891V51.2391C106.709 51.4911 106.583 51.6171 106.331 51.6171H104.801C104.549 51.6171 104.423 51.4911 104.423 51.2391V50.7531C104.423 49.8171 104.681 49.0971 105.197 48.5931C105.713 48.0891 106.445 47.8371 107.393 47.8371H108.995C109.943 47.8371 110.675 48.0891 111.191 48.5931C111.707 49.0971 111.965 49.8171 111.965 50.7531V51.6531C111.965 52.6611 111.491 53.3151 110.543 53.6151C111.491 53.8191 111.965 54.4731 111.965 55.5771V56.4951C111.965 57.4311 111.707 58.1511 111.191 58.6551C110.675 59.1591 109.943 59.4111 108.995 59.4111H107.393C106.445 59.4111 105.713 59.1591 105.197 58.6551C104.681 58.1511 104.423 57.4311 104.423 56.4951V55.9911C104.423 55.7271 104.549 55.5951 104.801 55.5951H106.331C106.583 55.5951 106.709 55.7271 106.709 55.9911V56.4591C106.709 56.8431 106.787 57.1131 106.943 57.2691C107.099 57.4251 107.369 57.5031 107.753 57.5031H108.617C109.013 57.5031 109.295 57.4251 109.463 57.2691C109.643 57.1011 109.733 56.8311 109.733 56.4591V55.5771C109.733 55.2051 109.643 54.9411 109.463 54.7851C109.295 54.6171 109.013 54.5331 108.617 54.5331H107.699C107.447 54.5331 107.321 54.4071 107.321 54.1551V53.0751C107.321 52.8111 107.447 52.6791 107.699 52.6791ZM118.639 55.3251V49.7631L115.723 55.3251H118.639ZM120.421 59.4111H119.017C118.765 59.4111 118.639 59.2851 118.639 59.0331V57.3051H114.175C113.971 57.3051 113.809 57.2451 113.689 57.1251C113.569 57.0051 113.509 56.8431 113.509 56.6391V55.9371C113.509 55.5771 113.569 55.2831 113.689 55.0551L117.271 48.3951C117.391 48.1791 117.499 48.0351 117.595 47.9631C117.703 47.8791 117.859 47.8371 118.063 47.8371H120.097C120.301 47.8371 120.463 47.8971 120.583 48.0171C120.715 48.1371 120.781 48.2991 120.781 48.5031V55.3251H122.077C122.317 55.3251 122.437 55.4451 122.437 55.6851V56.8911C122.437 57.1671 122.317 57.3051 122.077 57.3051H120.781V59.0331C120.781 59.1771 120.751 59.2791 120.691 59.3391C120.643 59.3871 120.553 59.4111 120.421 59.4111ZM126.919 57.4491H128.143C128.527 57.4491 128.797 57.3711 128.953 57.2151C129.109 57.0591 129.187 56.7951 129.187 56.4231V55.5951C129.187 55.2111 129.109 54.9291 128.953 54.7491C128.797 54.5691 128.527 54.4791 128.143 54.4791H126.919C126.535 54.4791 126.265 54.5691 126.109 54.7491C125.953 54.9291 125.875 55.2111 125.875 55.5951V56.4231C125.875 56.7951 125.953 57.0591 126.109 57.2151C126.265 57.3711 126.535 57.4491 126.919 57.4491ZM126.919 52.6971H128.143C128.527 52.6971 128.797 52.6071 128.953 52.4271C129.109 52.2471 129.187 51.9651 129.187 51.5811V50.8251C129.187 50.4531 129.109 50.1891 128.953 50.0331C128.797 49.8771 128.527 49.7991 128.143 49.7991H126.919C126.535 49.7991 126.265 49.8771 126.109 50.0331C125.953 50.1891 125.875 50.4531 125.875 50.8251V51.5811C125.875 51.9651 125.953 52.2471 126.109 52.4271C126.265 52.6071 126.535 52.6971 126.919 52.6971ZM128.485 59.4111H126.577C125.617 59.4111 124.879 59.1771 124.363 58.7091C123.859 58.2291 123.607 57.5271 123.607 56.6031V55.7751C123.607 54.6711 124.003 53.9451 124.795 53.5971C124.003 53.2731 123.607 52.5411 123.607 51.4011V50.6271C123.607 49.7031 123.859 49.0071 124.363 48.5391C124.879 48.0711 125.617 47.8371 126.577 47.8371H128.485C129.433 47.8371 130.159 48.0711 130.663 48.5391C131.179 49.0071 131.437 49.7031 131.437 50.6271V51.4011C131.437 51.9651 131.329 52.4451 131.113 52.8411C130.897 53.2371 130.615 53.4891 130.267 53.5971C131.047 53.9091 131.437 54.6411 131.437 55.7931V56.6031C131.437 57.5271 131.179 58.2291 130.663 58.7091C130.159 59.1771 129.433 59.4111 128.485 59.4111Z" fill="white"/>
<path d="M272.495 50.3571C272.735 50.3571 272.855 50.4831 272.855 50.7351V51.7971C272.855 52.0611 272.735 52.1931 272.495 52.1931H270.731L270.047 55.0551H271.613C271.853 55.0551 271.973 55.1871 271.973 55.4511V56.5131C271.973 56.7651 271.853 56.8911 271.613 56.8911H269.597L269.075 59.0331C269.027 59.2851 268.895 59.4111 268.679 59.4111H267.545C267.269 59.4111 267.167 59.2791 267.239 59.0151L267.761 56.8911H265.727L265.205 59.0331C265.133 59.2851 264.977 59.4111 264.737 59.4111H263.675C263.411 59.4111 263.309 59.2791 263.369 59.0151L263.891 56.8911H262.451C262.199 56.8911 262.073 56.7651 262.073 56.5131V55.4511C262.073 55.1871 262.199 55.0551 262.451 55.0551H264.341L265.025 52.1931H263.333C263.081 52.1931 262.955 52.0611 262.955 51.7971V50.7351C262.955 50.4831 263.081 50.3571 263.333 50.3571H265.475L265.997 48.2151C266.057 47.9631 266.189 47.8371 266.393 47.8371H267.509C267.785 47.8371 267.893 47.9691 267.833 48.2331L267.311 50.3571H269.345L269.867 48.2151C269.939 47.9631 270.095 47.8371 270.335 47.8371H271.379C271.667 47.8371 271.775 47.9691 271.703 48.2331L271.181 50.3571H272.495ZM268.211 55.0551L268.895 52.1931H266.861L266.177 55.0551H268.211ZM277.426 52.6791H278.344C278.74 52.6791 279.022 52.6011 279.19 52.4451C279.37 52.2771 279.46 52.0071 279.46 51.6351V50.7891C279.46 50.4171 279.37 50.1531 279.19 49.9971C279.022 49.8291 278.74 49.7451 278.344 49.7451H277.48C277.096 49.7451 276.826 49.8291 276.67 49.9971C276.514 50.1531 276.436 50.4171 276.436 50.7891V51.2391C276.436 51.4911 276.31 51.6171 276.058 51.6171H274.528C274.276 51.6171 274.15 51.4911 274.15 51.2391V50.7531C274.15 49.8171 274.408 49.0971 274.924 48.5931C275.44 48.0891 276.172 47.8371 277.12 47.8371H278.722C279.67 47.8371 280.402 48.0891 280.918 48.5931C281.434 49.0971 281.692 49.8171 281.692 50.7531V51.6531C281.692 52.6611 281.218 53.3151 280.27 53.6151C281.218 53.8191 281.692 54.4731 281.692 55.5771V56.4951C281.692 57.4311 281.434 58.1511 280.918 58.6551C280.402 59.1591 279.67 59.4111 278.722 59.4111H277.12C276.172 59.4111 275.44 59.1591 274.924 58.6551C274.408 58.1511 274.15 57.4311 274.15 56.4951V55.9911C274.15 55.7271 274.276 55.5951 274.528 55.5951H276.058C276.31 55.5951 276.436 55.7271 276.436 55.9911V56.4591C276.436 56.8431 276.514 57.1131 276.67 57.2691C276.826 57.4251 277.096 57.5031 277.48 57.5031H278.344C278.74 57.5031 279.022 57.4251 279.19 57.2691C279.37 57.1011 279.46 56.8311 279.46 56.4591V55.5771C279.46 55.2051 279.37 54.9411 279.19 54.7851C279.022 54.6171 278.74 54.5331 278.344 54.5331H277.426C277.174 54.5331 277.048 54.4071 277.048 54.1551V53.0751C277.048 52.8111 277.174 52.6791 277.426 52.6791ZM286.908 57.4491H288.132C288.516 57.4491 288.786 57.3711 288.942 57.2151C289.098 57.0591 289.176 56.7951 289.176 56.4231V55.5951C289.176 55.2111 289.098 54.9291 288.942 54.7491C288.786 54.5691 288.516 54.4791 288.132 54.4791H286.908C286.524 54.4791 286.254 54.5691 286.098 54.7491C285.942 54.9291 285.864 55.2111 285.864 55.5951V56.4231C285.864 56.7951 285.942 57.0591 286.098 57.2151C286.254 57.3711 286.524 57.4491 286.908 57.4491ZM286.908 52.6971H288.132C288.516 52.6971 288.786 52.6071 288.942 52.4271C289.098 52.2471 289.176 51.9651 289.176 51.5811V50.8251C289.176 50.4531 289.098 50.1891 288.942 50.0331C288.786 49.8771 288.516 49.7991 288.132 49.7991H286.908C286.524 49.7991 286.254 49.8771 286.098 50.0331C285.942 50.1891 285.864 50.4531 285.864 50.8251V51.5811C285.864 51.9651 285.942 52.2471 286.098 52.4271C286.254 52.6071 286.524 52.6971 286.908 52.6971ZM288.474 59.4111H286.566C285.606 59.4111 284.868 59.1771 284.352 58.7091C283.848 58.2291 283.596 57.5271 283.596 56.6031V55.7751C283.596 54.6711 283.992 53.9451 284.784 53.5971C283.992 53.2731 283.596 52.5411 283.596 51.4011V50.6271C283.596 49.7031 283.848 49.0071 284.352 48.5391C284.868 48.0711 285.606 47.8371 286.566 47.8371H288.474C289.422 47.8371 290.148 48.0711 290.652 48.5391C291.168 49.0071 291.426 49.7031 291.426 50.6271V51.4011C291.426 51.9651 291.318 52.4451 291.102 52.8411C290.886 53.2371 290.604 53.4891 290.256 53.5971C291.036 53.9091 291.426 54.6411 291.426 55.7931V56.6031C291.426 57.5271 291.168 58.2291 290.652 58.7091C290.148 59.1771 289.422 59.4111 288.474 59.4111ZM298.122 55.3251V49.7631L295.206 55.3251H298.122ZM299.904 59.4111H298.5C298.248 59.4111 298.122 59.2851 298.122 59.0331V57.3051H293.658C293.454 57.3051 293.292 57.2451 293.172 57.1251C293.052 57.0051 292.992 56.8431 292.992 56.6391V55.9371C292.992 55.5771 293.052 55.2831 293.172 55.0551L296.754 48.3951C296.874 48.1791 296.982 48.0351 297.078 47.9631C297.186 47.8791 297.342 47.8371 297.546 47.8371H299.58C299.784 47.8371 299.946 47.8971 300.066 48.0171C300.198 48.1371 300.264 48.2991 300.264 48.5031V55.3251H301.56C301.8 55.3251 301.92 55.4451 301.92 55.6851V56.8911C301.92 57.1671 301.8 57.3051 301.56 57.3051H300.264V59.0331C300.264 59.1771 300.234 59.2791 300.174 59.3391C300.126 59.3871 300.036 59.4111 299.904 59.4111ZM305.79 57.4311H307.752C308.136 57.4311 308.406 57.3531 308.562 57.1971C308.73 57.0291 308.814 56.7531 308.814 56.3691V50.8791C308.814 50.4951 308.73 50.2251 308.562 50.0691C308.406 49.9011 308.136 49.8171 307.752 49.8171H305.79C305.658 49.8171 305.592 49.8831 305.592 50.0151V57.2331C305.592 57.3651 305.658 57.4311 305.79 57.4311ZM303.306 59.0331V48.2151C303.306 47.9631 303.432 47.8371 303.684 47.8371H308.13C309.066 47.8371 309.792 48.0951 310.308 48.6111C310.836 49.1151 311.1 49.8351 311.1 50.7711V56.4771C311.1 57.4131 310.836 58.1391 310.308 58.6551C309.792 59.1591 309.066 59.4111 308.13 59.4111H303.684C303.432 59.4111 303.306 59.2851 303.306 59.0331ZM312.932 59.0331V57.3231C312.932 56.6391 313.226 56.0571 313.814 55.5771L317.126 52.7691C317.666 52.3251 317.936 51.8451 317.936 51.3291V50.7891C317.936 50.4171 317.846 50.1531 317.666 49.9971C317.498 49.8291 317.216 49.7451 316.82 49.7451H316.19C315.806 49.7451 315.536 49.8291 315.38 49.9971C315.224 50.1531 315.146 50.4171 315.146 50.7891V51.3651C315.146 51.6291 315.02 51.7611 314.768 51.7611H313.238C312.986 51.7611 312.86 51.6291 312.86 51.3651V50.7531C312.86 49.8171 313.118 49.0971 313.634 48.5931C314.15 48.0891 314.882 47.8371 315.83 47.8371H317.198C318.146 47.8371 318.878 48.0891 319.394 48.5931C319.91 49.0971 320.168 49.8171 320.168 50.7531V51.4731C320.168 52.4091 319.808 53.1831 319.088 53.7951L315.704 56.6751C315.56 56.8071 315.488 56.9511 315.488 57.1071V57.3951H319.79C320.042 57.3951 320.168 57.5211 320.168 57.7731V59.0331C320.168 59.2851 320.042 59.4111 319.79 59.4111H313.31C313.058 59.4111 312.932 59.2851 312.932 59.0331ZM324.617 57.5031H326.633C327.029 57.5031 327.311 57.4251 327.479 57.2691C327.659 57.1011 327.749 56.8311 327.749 56.4591V55.4151C327.749 55.0431 327.659 54.7791 327.479 54.6231C327.299 54.4671 327.005 54.3891 326.597 54.3891H324.617C324.485 54.3891 324.419 54.4551 324.419 54.5871V57.3051C324.419 57.4371 324.485 57.5031 324.617 57.5031ZM324.617 52.5351H326.453C326.837 52.5351 327.119 52.4571 327.299 52.3011C327.479 52.1331 327.569 51.8631 327.569 51.4911V50.7891C327.569 50.4171 327.479 50.1531 327.299 49.9971C327.131 49.8291 326.855 49.7451 326.471 49.7451H324.617C324.485 49.7451 324.419 49.8111 324.419 49.9431V52.3371C324.419 52.4691 324.485 52.5351 324.617 52.5351ZM322.133 59.0331V48.2151C322.133 47.9631 322.259 47.8371 322.511 47.8371H326.831C327.779 47.8371 328.511 48.0891 329.027 48.5931C329.543 49.0971 329.801 49.8171 329.801 50.7531V51.4911C329.801 52.5111 329.327 53.1711 328.379 53.4711C328.859 53.5431 329.243 53.7411 329.531 54.0651C329.819 54.3771 329.963 54.8271 329.963 55.4151V56.4951C329.963 57.4311 329.705 58.1511 329.189 58.6551C328.673 59.1591 327.947 59.4111 327.011 59.4111H322.511C322.259 59.4111 322.133 59.2851 322.133 59.0331Z" fill="white"/>
<path d="M474.219 50.3571C474.459 50.3571 474.579 50.4831 474.579 50.7351V51.7971C474.579 52.0611 474.459 52.1931 474.219 52.1931H472.455L471.771 55.0551H473.337C473.577 55.0551 473.697 55.1871 473.697 55.4511V56.5131C473.697 56.7651 473.577 56.8911 473.337 56.8911H471.321L470.799 59.0331C470.751 59.2851 470.619 59.4111 470.403 59.4111H469.269C468.993 59.4111 468.891 59.2791 468.963 59.0151L469.485 56.8911H467.451L466.929 59.0331C466.857 59.2851 466.701 59.4111 466.461 59.4111H465.399C465.135 59.4111 465.033 59.2791 465.093 59.0151L465.615 56.8911H464.175C463.923 56.8911 463.797 56.7651 463.797 56.5131V55.4511C463.797 55.1871 463.923 55.0551 464.175 55.0551H466.065L466.749 52.1931H465.057C464.805 52.1931 464.679 52.0611 464.679 51.7971V50.7351C464.679 50.4831 464.805 50.3571 465.057 50.3571H467.199L467.721 48.2151C467.781 47.9631 467.913 47.8371 468.117 47.8371H469.233C469.509 47.8371 469.617 47.9691 469.557 48.2331L469.035 50.3571H471.069L471.591 48.2151C471.663 47.9631 471.819 47.8371 472.059 47.8371H473.103C473.391 47.8371 473.499 47.9691 473.427 48.2331L472.905 50.3571H474.219ZM469.935 55.0551L470.619 52.1931H468.585L467.901 55.0551H469.935ZM482.642 59.4111H476.756C476.504 59.4111 476.378 59.2851 476.378 59.0331V48.2151C476.378 47.9631 476.504 47.8371 476.756 47.8371H482.642C482.882 47.8371 483.002 47.9631 483.002 48.2151V49.4391C483.002 49.6911 482.882 49.8171 482.642 49.8171H478.88C478.736 49.8171 478.664 49.8831 478.664 50.0151V52.3551C478.664 52.4871 478.736 52.5531 478.88 52.5531H481.958C482.21 52.5531 482.336 52.6791 482.336 52.9311V54.1551C482.336 54.4071 482.21 54.5331 481.958 54.5331H478.88C478.736 54.5331 478.664 54.5991 478.664 54.7311V57.2331C478.664 57.3651 478.736 57.4311 478.88 57.4311H482.642C482.882 57.4311 483.002 57.5571 483.002 57.8091V59.0331C483.002 59.2851 482.882 59.4111 482.642 59.4111ZM487.475 57.5031H489.491C489.887 57.5031 490.169 57.4251 490.337 57.2691C490.517 57.1011 490.607 56.8311 490.607 56.4591V55.4151C490.607 55.0431 490.517 54.7791 490.337 54.6231C490.157 54.4671 489.863 54.3891 489.455 54.3891H487.475C487.343 54.3891 487.277 54.4551 487.277 54.5871V57.3051C487.277 57.4371 487.343 57.5031 487.475 57.5031ZM487.475 52.5351H489.311C489.695 52.5351 489.977 52.4571 490.157 52.3011C490.337 52.1331 490.427 51.8631 490.427 51.4911V50.7891C490.427 50.4171 490.337 50.1531 490.157 49.9971C489.989 49.8291 489.713 49.7451 489.329 49.7451H487.475C487.343 49.7451 487.277 49.8111 487.277 49.9431V52.3371C487.277 52.4691 487.343 52.5351 487.475 52.5351ZM484.991 59.0331V48.2151C484.991 47.9631 485.117 47.8371 485.369 47.8371H489.689C490.637 47.8371 491.369 48.0891 491.885 48.5931C492.401 49.0971 492.659 49.8171 492.659 50.7531V51.4911C492.659 52.5111 492.185 53.1711 491.237 53.4711C491.717 53.5431 492.101 53.7411 492.389 54.0651C492.677 54.3771 492.821 54.8271 492.821 55.4151V56.4951C492.821 57.4311 492.563 58.1511 492.047 58.6551C491.531 59.1591 490.805 59.4111 489.869 59.4111H485.369C485.117 59.4111 484.991 59.2851 484.991 59.0331ZM497.928 53.3091H500.016V50.8791C500.016 50.4951 499.932 50.2251 499.764 50.0691C499.608 49.9011 499.338 49.8171 498.954 49.8171H497.928C497.544 49.8171 497.274 49.9011 497.118 50.0691C496.962 50.2251 496.884 50.4951 496.884 50.8791V52.2651C496.884 52.6371 496.962 52.9071 497.118 53.0751C497.274 53.2311 497.544 53.3091 497.928 53.3091ZM499.314 59.4111H495.516C495.252 59.4111 495.12 59.2851 495.12 59.0331V57.7911C495.12 57.5511 495.252 57.4311 495.516 57.4311H498.954C499.338 57.4311 499.608 57.3531 499.764 57.1971C499.92 57.0291 499.998 56.7531 499.998 56.3691V55.2891H497.55C496.602 55.2891 495.87 55.0371 495.354 54.5331C494.838 54.0291 494.58 53.3091 494.58 52.3731V50.7711C494.58 49.8231 494.838 49.0971 495.354 48.5931C495.87 48.0891 496.602 47.8371 497.55 47.8371H499.314C500.262 47.8371 500.994 48.0891 501.51 48.5931C502.026 49.0971 502.284 49.8231 502.284 50.7711V56.4771C502.284 57.4251 502.026 58.1511 501.51 58.6551C500.994 59.1591 500.262 59.4111 499.314 59.4111ZM503.677 51.0591V49.5831C503.677 49.3791 503.767 49.2231 503.947 49.1151L505.585 48.0891C505.861 47.9211 506.095 47.8371 506.287 47.8371H507.727C507.979 47.8371 508.105 47.9631 508.105 48.2151V59.0331C508.105 59.1771 508.075 59.2791 508.015 59.3391C507.967 59.3871 507.877 59.4111 507.745 59.4111H506.197C505.945 59.4111 505.819 59.2851 505.819 59.0331V50.2671L504.055 51.2751C503.803 51.3831 503.677 51.3111 503.677 51.0591ZM513.216 52.6791H514.134C514.53 52.6791 514.812 52.6011 514.98 52.4451C515.16 52.2771 515.25 52.0071 515.25 51.6351V50.7891C515.25 50.4171 515.16 50.1531 514.98 49.9971C514.812 49.8291 514.53 49.7451 514.134 49.7451H513.27C512.886 49.7451 512.616 49.8291 512.46 49.9971C512.304 50.1531 512.226 50.4171 512.226 50.7891V51.2391C512.226 51.4911 512.1 51.6171 511.848 51.6171H510.318C510.066 51.6171 509.94 51.4911 509.94 51.2391V50.7531C509.94 49.8171 510.198 49.0971 510.714 48.5931C511.23 48.0891 511.962 47.8371 512.91 47.8371H514.512C515.46 47.8371 516.192 48.0891 516.708 48.5931C517.224 49.0971 517.482 49.8171 517.482 50.7531V51.6531C517.482 52.6611 517.008 53.3151 516.06 53.6151C517.008 53.8191 517.482 54.4731 517.482 55.5771V56.4951C517.482 57.4311 517.224 58.1511 516.708 58.6551C516.192 59.1591 515.46 59.4111 514.512 59.4111H512.91C511.962 59.4111 511.23 59.1591 510.714 58.6551C510.198 58.1511 509.94 57.4311 509.94 56.4951V55.9911C509.94 55.7271 510.066 55.5951 510.318 55.5951H511.848C512.1 55.5951 512.226 55.7271 512.226 55.9911V56.4591C512.226 56.8431 512.304 57.1131 512.46 57.2691C512.616 57.4251 512.886 57.5031 513.27 57.5031H514.134C514.53 57.5031 514.812 57.4251 514.98 57.2691C515.16 57.1011 515.25 56.8311 515.25 56.4591V55.5771C515.25 55.2051 515.16 54.9411 514.98 54.7851C514.812 54.6171 514.53 54.5331 514.134 54.5331H513.216C512.964 54.5331 512.838 54.4071 512.838 54.1551V53.0751C512.838 52.8111 512.964 52.6791 513.216 52.6791ZM522.735 57.4311H523.797C524.181 57.4311 524.451 57.3531 524.607 57.1971C524.763 57.0291 524.841 56.7531 524.841 56.3691V50.8791C524.841 50.4951 524.763 50.2251 524.607 50.0691C524.451 49.9011 524.181 49.8171 523.797 49.8171H522.735C522.351 49.8171 522.081 49.9011 521.925 50.0691C521.769 50.2251 521.691 50.4951 521.691 50.8791V56.3691C521.691 56.7531 521.769 57.0291 521.925 57.1971C522.081 57.3531 522.351 57.4311 522.735 57.4311ZM524.157 59.4111H522.357C521.409 59.4111 520.677 59.1591 520.161 58.6551C519.645 58.1511 519.387 57.4251 519.387 56.4771V50.7711C519.387 49.8231 519.645 49.0971 520.161 48.5931C520.677 48.0891 521.409 47.8371 522.357 47.8371H524.157C525.093 47.8371 525.819 48.0951 526.335 48.6111C526.851 49.1151 527.109 49.8351 527.109 50.7711V56.4771C527.109 57.4131 526.851 58.1391 526.335 58.6551C525.819 59.1591 525.093 59.4111 524.157 59.4111Z" fill="white"/>
<path d="M671.529 50.3571C671.769 50.3571 671.889 50.4831 671.889 50.7351V51.7971C671.889 52.0611 671.769 52.1931 671.529 52.1931H669.765L669.081 55.0551H670.647C670.887 55.0551 671.007 55.1871 671.007 55.4511V56.5131C671.007 56.7651 670.887 56.8911 670.647 56.8911H668.631L668.109 59.0331C668.061 59.2851 667.929 59.4111 667.713 59.4111H666.579C666.303 59.4111 666.201 59.2791 666.273 59.0151L666.795 56.8911H664.761L664.239 59.0331C664.167 59.2851 664.011 59.4111 663.771 59.4111H662.709C662.445 59.4111 662.343 59.2791 662.403 59.0151L662.925 56.8911H661.485C661.233 56.8911 661.107 56.7651 661.107 56.5131V55.4511C661.107 55.1871 661.233 55.0551 661.485 55.0551H663.375L664.059 52.1931H662.367C662.115 52.1931 661.989 52.0611 661.989 51.7971V50.7351C661.989 50.4831 662.115 50.3571 662.367 50.3571H664.509L665.031 48.2151C665.091 47.9631 665.223 47.8371 665.427 47.8371H666.543C666.819 47.8371 666.927 47.9691 666.867 48.2331L666.345 50.3571H668.379L668.901 48.2151C668.973 47.9631 669.129 47.8371 669.369 47.8371H670.413C670.701 47.8371 670.809 47.9691 670.737 48.2331L670.215 50.3571H671.529ZM667.245 55.0551L667.929 52.1931H665.895L665.211 55.0551H667.245ZM675.596 59.4111H674.066C673.814 59.4111 673.688 59.2851 673.688 59.0331V48.2151C673.688 47.9631 673.814 47.8371 674.066 47.8371H679.808C680.048 47.8371 680.168 47.9631 680.168 48.2151V49.4391C680.168 49.6911 680.048 49.8171 679.808 49.8171H676.19C676.046 49.8171 675.974 49.8831 675.974 50.0151V52.8051C675.974 52.9491 676.046 53.0211 676.19 53.0211H679.268C679.52 53.0211 679.646 53.1471 679.646 53.3991V54.6051C679.646 54.8691 679.52 55.0011 679.268 55.0011H676.19C676.046 55.0011 675.974 55.0671 675.974 55.1991V59.0331C675.974 59.2851 675.848 59.4111 675.596 59.4111ZM683.699 59.4111H682.169C681.917 59.4111 681.791 59.2851 681.791 59.0331V48.2151C681.791 47.9631 681.917 47.8371 682.169 47.8371H687.911C688.151 47.8371 688.271 47.9631 688.271 48.2151V49.4391C688.271 49.6911 688.151 49.8171 687.911 49.8171H684.293C684.149 49.8171 684.077 49.8831 684.077 50.0151V52.8051C684.077 52.9491 684.149 53.0211 684.293 53.0211H687.371C687.623 53.0211 687.749 53.1471 687.749 53.3991V54.6051C687.749 54.8691 687.623 55.0011 687.371 55.0011H684.293C684.149 55.0011 684.077 55.0671 684.077 55.1991V59.0331C684.077 59.2851 683.951 59.4111 683.699 59.4111ZM692.379 57.4311H694.341C694.725 57.4311 694.995 57.3531 695.151 57.1971C695.319 57.0291 695.403 56.7531 695.403 56.3691V50.8791C695.403 50.4951 695.319 50.2251 695.151 50.0691C694.995 49.9011 694.725 49.8171 694.341 49.8171H692.379C692.247 49.8171 692.181 49.8831 692.181 50.0151V57.2331C692.181 57.3651 692.247 57.4311 692.379 57.4311ZM689.895 59.0331V48.2151C689.895 47.9631 690.021 47.8371 690.273 47.8371H694.719C695.655 47.8371 696.381 48.0951 696.897 48.6111C697.425 49.1151 697.689 49.8351 697.689 50.7711V56.4771C697.689 57.4131 697.425 58.1391 696.897 58.6551C696.381 59.1591 695.655 59.4111 694.719 59.4111H690.273C690.021 59.4111 689.895 59.2851 689.895 59.0331ZM702.328 57.5031H704.344C704.74 57.5031 705.022 57.4251 705.19 57.2691C705.37 57.1011 705.46 56.8311 705.46 56.4591V55.4151C705.46 55.0431 705.37 54.7791 705.19 54.6231C705.01 54.4671 704.716 54.3891 704.308 54.3891H702.328C702.196 54.3891 702.13 54.4551 702.13 54.5871V57.3051C702.13 57.4371 702.196 57.5031 702.328 57.5031ZM702.328 52.5351H704.164C704.548 52.5351 704.83 52.4571 705.01 52.3011C705.19 52.1331 705.28 51.8631 705.28 51.4911V50.7891C705.28 50.4171 705.19 50.1531 705.01 49.9971C704.842 49.8291 704.566 49.7451 704.182 49.7451H702.328C702.196 49.7451 702.13 49.8111 702.13 49.9431V52.3371C702.13 52.4691 702.196 52.5351 702.328 52.5351ZM699.844 59.0331V48.2151C699.844 47.9631 699.97 47.8371 700.222 47.8371H704.542C705.49 47.8371 706.222 48.0891 706.738 48.5931C707.254 49.0971 707.512 49.8171 707.512 50.7531V51.4911C707.512 52.5111 707.038 53.1711 706.09 53.4711C706.57 53.5431 706.954 53.7411 707.242 54.0651C707.53 54.3771 707.674 54.8271 707.674 55.4151V56.4951C707.674 57.4311 707.416 58.1511 706.9 58.6551C706.384 59.1591 705.658 59.4111 704.722 59.4111H700.222C699.97 59.4111 699.844 59.2851 699.844 59.0331ZM712.924 57.4311H713.95C714.334 57.4311 714.604 57.3531 714.76 57.1971C714.928 57.0291 715.012 56.7531 715.012 56.3691V55.1271C715.012 54.7431 714.928 54.4731 714.76 54.3171C714.604 54.1491 714.334 54.0651 713.95 54.0651H711.88V56.3691C711.88 56.7531 711.958 57.0291 712.114 57.1971C712.27 57.3531 712.54 57.4311 712.924 57.4311ZM714.328 59.4111H712.564C711.616 59.4111 710.884 59.1591 710.368 58.6551C709.852 58.1511 709.594 57.4251 709.594 56.4771V50.7711C709.594 49.8231 709.852 49.0971 710.368 48.5931C710.884 48.0891 711.616 47.8371 712.564 47.8371H716.236C716.488 47.8371 716.614 47.9631 716.614 48.2151V49.4571C716.614 49.6971 716.488 49.8171 716.236 49.8171H712.924C712.552 49.8171 712.282 49.9011 712.114 50.0691C711.958 50.2251 711.88 50.4951 711.88 50.8791V52.0851H714.328C715.276 52.0851 716.008 52.3371 716.524 52.8411C717.04 53.3451 717.298 54.0711 717.298 55.0191V56.4771C717.298 57.4251 717.04 58.1511 716.524 58.6551C716.008 59.1591 715.276 59.4111 714.328 59.4111ZM722.057 52.6791H722.975C723.371 52.6791 723.653 52.6011 723.821 52.4451C724.001 52.2771 724.091 52.0071 724.091 51.6351V50.7891C724.091 50.4171 724.001 50.1531 723.821 49.9971C723.653 49.8291 723.371 49.7451 722.975 49.7451H722.111C721.727 49.7451 721.457 49.8291 721.301 49.9971C721.145 50.1531 721.067 50.4171 721.067 50.7891V51.2391C721.067 51.4911 720.941 51.6171 720.689 51.6171H719.159C718.907 51.6171 718.781 51.4911 718.781 51.2391V50.7531C718.781 49.8171 719.039 49.0971 719.555 48.5931C720.071 48.0891 720.803 47.8371 721.751 47.8371H723.353C724.301 47.8371 725.033 48.0891 725.549 48.5931C726.065 49.0971 726.323 49.8171 726.323 50.7531V51.6531C726.323 52.6611 725.849 53.3151 724.901 53.6151C725.849 53.8191 726.323 54.4731 726.323 55.5771V56.4951C726.323 57.4311 726.065 58.1511 725.549 58.6551C725.033 59.1591 724.301 59.4111 723.353 59.4111H721.751C720.803 59.4111 720.071 59.1591 719.555 58.6551C719.039 58.1511 718.781 57.4311 718.781 56.4951V55.9911C718.781 55.7271 718.907 55.5951 719.159 55.5951H720.689C720.941 55.5951 721.067 55.7271 721.067 55.9911V56.4591C721.067 56.8431 721.145 57.1131 721.301 57.2691C721.457 57.4251 721.727 57.5031 722.111 57.5031H722.975C723.371 57.5031 723.653 57.4251 723.821 57.2691C724.001 57.1011 724.091 56.8311 724.091 56.4591V55.5771C724.091 55.2051 724.001 54.9411 723.821 54.7851C723.653 54.6171 723.371 54.5331 722.975 54.5331H722.057C721.805 54.5331 721.679 54.4071 721.679 54.1551V53.0751C721.679 52.8111 721.805 52.6791 722.057 52.6791Z" fill="#303030"/>
</svg>
