<svg width="397" height="105" viewBox="0 0 397 105" fill="none" xmlns="http://www.w3.org/2000/svg">
<rect width="198.25" height="105" fill="#EB9130"/>
<rect x="198.25" width="198.25" height="105" fill="#FFDB63"/>
<path d="M77.594 49.946C77.834 49.946 77.954 50.072 77.954 50.324V51.386C77.954 51.65 77.834 51.782 77.594 51.782H75.83L75.146 54.644H76.712C76.952 54.644 77.072 54.776 77.072 55.04V56.102C77.072 56.354 76.952 56.48 76.712 56.48H74.696L74.174 58.622C74.126 58.874 73.994 59 73.778 59H72.644C72.368 59 72.266 58.868 72.338 58.604L72.86 56.48H70.826L70.304 58.622C70.232 58.874 70.076 59 69.836 59H68.774C68.51 59 68.408 58.868 68.468 58.604L68.99 56.48H67.55C67.298 56.48 67.172 56.354 67.172 56.102V55.04C67.172 54.776 67.298 54.644 67.55 54.644H69.44L70.124 51.782H68.432C68.18 51.782 68.054 51.65 68.054 51.386V50.324C68.054 50.072 68.18 49.946 68.432 49.946H70.574L71.096 47.804C71.156 47.552 71.288 47.426 71.492 47.426H72.608C72.884 47.426 72.992 47.558 72.932 47.822L72.41 49.946H74.444L74.966 47.804C75.038 47.552 75.194 47.426 75.434 47.426H76.478C76.766 47.426 76.874 47.558 76.802 47.822L76.28 49.946H77.594ZM73.31 54.644L73.994 51.782H71.96L71.276 54.644H73.31ZM86.017 59H80.131C79.879 59 79.753 58.874 79.753 58.622V47.804C79.753 47.552 79.879 47.426 80.131 47.426H86.017C86.257 47.426 86.377 47.552 86.377 47.804V49.028C86.377 49.28 86.257 49.406 86.017 49.406H82.255C82.111 49.406 82.039 49.472 82.039 49.604V51.944C82.039 52.076 82.111 52.142 82.255 52.142H85.333C85.585 52.142 85.711 52.268 85.711 52.52V53.744C85.711 53.996 85.585 54.122 85.333 54.122H82.255C82.111 54.122 82.039 54.188 82.039 54.32V56.822C82.039 56.954 82.111 57.02 82.255 57.02H86.017C86.257 57.02 86.377 57.146 86.377 57.398V58.622C86.377 58.874 86.257 59 86.017 59ZM90.8503 57.092H92.8663C93.2623 57.092 93.5443 57.014 93.7123 56.858C93.8923 56.69 93.9823 56.42 93.9823 56.048V55.004C93.9823 54.632 93.8923 54.368 93.7123 54.212C93.5323 54.056 93.2383 53.978 92.8303 53.978H90.8503C90.7183 53.978 90.6523 54.044 90.6523 54.176V56.894C90.6523 57.026 90.7183 57.092 90.8503 57.092ZM90.8503 52.124H92.6863C93.0703 52.124 93.3523 52.046 93.5323 51.89C93.7123 51.722 93.8023 51.452 93.8023 51.08V50.378C93.8023 50.006 93.7123 49.742 93.5323 49.586C93.3643 49.418 93.0883 49.334 92.7043 49.334H90.8503C90.7183 49.334 90.6523 49.4 90.6523 49.532V51.926C90.6523 52.058 90.7183 52.124 90.8503 52.124ZM88.3663 58.622V47.804C88.3663 47.552 88.4923 47.426 88.7443 47.426H93.0643C94.0123 47.426 94.7443 47.678 95.2603 48.182C95.7763 48.686 96.0343 49.406 96.0343 50.342V51.08C96.0343 52.1 95.5603 52.76 94.6123 53.06C95.0923 53.132 95.4763 53.33 95.7643 53.654C96.0523 53.966 96.1963 54.416 96.1963 55.004V56.084C96.1963 57.02 95.9383 57.74 95.4223 58.244C94.9063 58.748 94.1803 59 93.2443 59H88.7443C88.4923 59 88.3663 58.874 88.3663 58.622ZM101.303 52.898H103.391V50.468C103.391 50.084 103.307 49.814 103.139 49.658C102.983 49.49 102.713 49.406 102.329 49.406H101.303C100.919 49.406 100.649 49.49 100.493 49.658C100.337 49.814 100.259 50.084 100.259 50.468V51.854C100.259 52.226 100.337 52.496 100.493 52.664C100.649 52.82 100.919 52.898 101.303 52.898ZM102.689 59H98.8907C98.6267 59 98.4947 58.874 98.4947 58.622V57.38C98.4947 57.14 98.6267 57.02 98.8907 57.02H102.329C102.713 57.02 102.983 56.942 103.139 56.786C103.295 56.618 103.373 56.342 103.373 55.958V54.878H100.925C99.9767 54.878 99.2447 54.626 98.7287 54.122C98.2127 53.618 97.9547 52.898 97.9547 51.962V50.36C97.9547 49.412 98.2127 48.686 98.7287 48.182C99.2447 47.678 99.9767 47.426 100.925 47.426H102.689C103.637 47.426 104.369 47.678 104.885 48.182C105.401 48.686 105.659 49.412 105.659 50.36V56.066C105.659 57.014 105.401 57.74 104.885 58.244C104.369 58.748 103.637 59 102.689 59ZM107.052 50.648V49.172C107.052 48.968 107.142 48.812 107.322 48.704L108.96 47.678C109.236 47.51 109.47 47.426 109.662 47.426H111.102C111.354 47.426 111.48 47.552 111.48 47.804V58.622C111.48 58.766 111.45 58.868 111.39 58.928C111.342 58.976 111.252 59 111.12 59H109.572C109.32 59 109.194 58.874 109.194 58.622V49.856L107.43 50.864C107.178 50.972 107.052 50.9 107.052 50.648ZM116.591 52.268H117.509C117.905 52.268 118.187 52.19 118.355 52.034C118.535 51.866 118.625 51.596 118.625 51.224V50.378C118.625 50.006 118.535 49.742 118.355 49.586C118.187 49.418 117.905 49.334 117.509 49.334H116.645C116.261 49.334 115.991 49.418 115.835 49.586C115.679 49.742 115.601 50.006 115.601 50.378V50.828C115.601 51.08 115.475 51.206 115.223 51.206H113.693C113.441 51.206 113.315 51.08 113.315 50.828V50.342C113.315 49.406 113.573 48.686 114.089 48.182C114.605 47.678 115.337 47.426 116.285 47.426H117.887C118.835 47.426 119.567 47.678 120.083 48.182C120.599 48.686 120.857 49.406 120.857 50.342V51.242C120.857 52.25 120.383 52.904 119.435 53.204C120.383 53.408 120.857 54.062 120.857 55.166V56.084C120.857 57.02 120.599 57.74 120.083 58.244C119.567 58.748 118.835 59 117.887 59H116.285C115.337 59 114.605 58.748 114.089 58.244C113.573 57.74 113.315 57.02 113.315 56.084V55.58C113.315 55.316 113.441 55.184 113.693 55.184H115.223C115.475 55.184 115.601 55.316 115.601 55.58V56.048C115.601 56.432 115.679 56.702 115.835 56.858C115.991 57.014 116.261 57.092 116.645 57.092H117.509C117.905 57.092 118.187 57.014 118.355 56.858C118.535 56.69 118.625 56.42 118.625 56.048V55.166C118.625 54.794 118.535 54.53 118.355 54.374C118.187 54.206 117.905 54.122 117.509 54.122H116.591C116.339 54.122 116.213 53.996 116.213 53.744V52.664C116.213 52.4 116.339 52.268 116.591 52.268ZM126.11 57.02H127.172C127.556 57.02 127.826 56.942 127.982 56.786C128.138 56.618 128.216 56.342 128.216 55.958V50.468C128.216 50.084 128.138 49.814 127.982 49.658C127.826 49.49 127.556 49.406 127.172 49.406H126.11C125.726 49.406 125.456 49.49 125.3 49.658C125.144 49.814 125.066 50.084 125.066 50.468V55.958C125.066 56.342 125.144 56.618 125.3 56.786C125.456 56.942 125.726 57.02 126.11 57.02ZM127.532 59H125.732C124.784 59 124.052 58.748 123.536 58.244C123.02 57.74 122.762 57.014 122.762 56.066V50.36C122.762 49.412 123.02 48.686 123.536 48.182C124.052 47.678 124.784 47.426 125.732 47.426H127.532C128.468 47.426 129.194 47.684 129.71 48.2C130.226 48.704 130.484 49.424 130.484 50.36V56.066C130.484 57.002 130.226 57.728 129.71 58.244C129.194 58.748 128.468 59 127.532 59Z" fill="white"/>
<path d="M275.029 50.3571C275.269 50.3571 275.389 50.4831 275.389 50.7351V51.7971C275.389 52.0611 275.269 52.1931 275.029 52.1931H273.265L272.581 55.0551H274.147C274.387 55.0551 274.507 55.1871 274.507 55.4511V56.5131C274.507 56.7651 274.387 56.8911 274.147 56.8911H272.131L271.609 59.0331C271.561 59.2851 271.429 59.4111 271.213 59.4111H270.079C269.803 59.4111 269.701 59.2791 269.773 59.0151L270.295 56.8911H268.261L267.739 59.0331C267.667 59.2851 267.511 59.4111 267.271 59.4111H266.209C265.945 59.4111 265.843 59.2791 265.903 59.0151L266.425 56.8911H264.985C264.733 56.8911 264.607 56.7651 264.607 56.5131V55.4511C264.607 55.1871 264.733 55.0551 264.985 55.0551H266.875L267.559 52.1931H265.867C265.615 52.1931 265.489 52.0611 265.489 51.7971V50.7351C265.489 50.4831 265.615 50.3571 265.867 50.3571H268.009L268.531 48.2151C268.591 47.9631 268.723 47.8371 268.927 47.8371H270.043C270.319 47.8371 270.427 47.9691 270.367 48.2331L269.845 50.3571H271.879L272.401 48.2151C272.473 47.9631 272.629 47.8371 272.869 47.8371H273.913C274.201 47.8371 274.309 47.9691 274.237 48.2331L273.715 50.3571H275.029ZM270.745 55.0551L271.429 52.1931H269.395L268.711 55.0551H270.745ZM279.096 59.4111H277.566C277.314 59.4111 277.188 59.2851 277.188 59.0331V48.2151C277.188 47.9631 277.314 47.8371 277.566 47.8371H283.308C283.548 47.8371 283.668 47.9631 283.668 48.2151V49.4391C283.668 49.6911 283.548 49.8171 283.308 49.8171H279.69C279.546 49.8171 279.474 49.8831 279.474 50.0151V52.8051C279.474 52.9491 279.546 53.0211 279.69 53.0211H282.768C283.02 53.0211 283.146 53.1471 283.146 53.3991V54.6051C283.146 54.8691 283.02 55.0011 282.768 55.0011H279.69C279.546 55.0011 279.474 55.0671 279.474 55.1991V59.0331C279.474 59.2851 279.348 59.4111 279.096 59.4111ZM287.199 59.4111H285.669C285.417 59.4111 285.291 59.2851 285.291 59.0331V48.2151C285.291 47.9631 285.417 47.8371 285.669 47.8371H291.411C291.651 47.8371 291.771 47.9631 291.771 48.2151V49.4391C291.771 49.6911 291.651 49.8171 291.411 49.8171H287.793C287.649 49.8171 287.577 49.8831 287.577 50.0151V52.8051C287.577 52.9491 287.649 53.0211 287.793 53.0211H290.871C291.123 53.0211 291.249 53.1471 291.249 53.3991V54.6051C291.249 54.8691 291.123 55.0011 290.871 55.0011H287.793C287.649 55.0011 287.577 55.0671 287.577 55.1991V59.0331C287.577 59.2851 287.451 59.4111 287.199 59.4111ZM295.879 57.4311H297.841C298.225 57.4311 298.495 57.3531 298.651 57.1971C298.819 57.0291 298.903 56.7531 298.903 56.3691V50.8791C298.903 50.4951 298.819 50.2251 298.651 50.0691C298.495 49.9011 298.225 49.8171 297.841 49.8171H295.879C295.747 49.8171 295.681 49.8831 295.681 50.0151V57.2331C295.681 57.3651 295.747 57.4311 295.879 57.4311ZM293.395 59.0331V48.2151C293.395 47.9631 293.521 47.8371 293.773 47.8371H298.219C299.155 47.8371 299.881 48.0951 300.397 48.6111C300.925 49.1151 301.189 49.8351 301.189 50.7711V56.4771C301.189 57.4131 300.925 58.1391 300.397 58.6551C299.881 59.1591 299.155 59.4111 298.219 59.4111H293.773C293.521 59.4111 293.395 59.2851 293.395 59.0331ZM305.828 57.5031H307.844C308.24 57.5031 308.522 57.4251 308.69 57.2691C308.87 57.1011 308.96 56.8311 308.96 56.4591V55.4151C308.96 55.0431 308.87 54.7791 308.69 54.6231C308.51 54.4671 308.216 54.3891 307.808 54.3891H305.828C305.696 54.3891 305.63 54.4551 305.63 54.5871V57.3051C305.63 57.4371 305.696 57.5031 305.828 57.5031ZM305.828 52.5351H307.664C308.048 52.5351 308.33 52.4571 308.51 52.3011C308.69 52.1331 308.78 51.8631 308.78 51.4911V50.7891C308.78 50.4171 308.69 50.1531 308.51 49.9971C308.342 49.8291 308.066 49.7451 307.682 49.7451H305.828C305.696 49.7451 305.63 49.8111 305.63 49.9431V52.3371C305.63 52.4691 305.696 52.5351 305.828 52.5351ZM303.344 59.0331V48.2151C303.344 47.9631 303.47 47.8371 303.722 47.8371H308.042C308.99 47.8371 309.722 48.0891 310.238 48.5931C310.754 49.0971 311.012 49.8171 311.012 50.7531V51.4911C311.012 52.5111 310.538 53.1711 309.59 53.4711C310.07 53.5431 310.454 53.7411 310.742 54.0651C311.03 54.3771 311.174 54.8271 311.174 55.4151V56.4951C311.174 57.4311 310.916 58.1511 310.4 58.6551C309.884 59.1591 309.158 59.4111 308.222 59.4111H303.722C303.47 59.4111 303.344 59.2851 303.344 59.0331ZM316.424 57.4311H317.45C317.834 57.4311 318.104 57.3531 318.26 57.1971C318.428 57.0291 318.512 56.7531 318.512 56.3691V55.1271C318.512 54.7431 318.428 54.4731 318.26 54.3171C318.104 54.1491 317.834 54.0651 317.45 54.0651H315.38V56.3691C315.38 56.7531 315.458 57.0291 315.614 57.1971C315.77 57.3531 316.04 57.4311 316.424 57.4311ZM317.828 59.4111H316.064C315.116 59.4111 314.384 59.1591 313.868 58.6551C313.352 58.1511 313.094 57.4251 313.094 56.4771V50.7711C313.094 49.8231 313.352 49.0971 313.868 48.5931C314.384 48.0891 315.116 47.8371 316.064 47.8371H319.736C319.988 47.8371 320.114 47.9631 320.114 48.2151V49.4571C320.114 49.6971 319.988 49.8171 319.736 49.8171H316.424C316.052 49.8171 315.782 49.9011 315.614 50.0691C315.458 50.2251 315.38 50.4951 315.38 50.8791V52.0851H317.828C318.776 52.0851 319.508 52.3371 320.024 52.8411C320.54 53.3451 320.798 54.0711 320.798 55.0191V56.4771C320.798 57.4251 320.54 58.1511 320.024 58.6551C319.508 59.1591 318.776 59.4111 317.828 59.4111ZM325.557 52.6791H326.475C326.871 52.6791 327.153 52.6011 327.321 52.4451C327.501 52.2771 327.591 52.0071 327.591 51.6351V50.7891C327.591 50.4171 327.501 50.1531 327.321 49.9971C327.153 49.8291 326.871 49.7451 326.475 49.7451H325.611C325.227 49.7451 324.957 49.8291 324.801 49.9971C324.645 50.1531 324.567 50.4171 324.567 50.7891V51.2391C324.567 51.4911 324.441 51.6171 324.189 51.6171H322.659C322.407 51.6171 322.281 51.4911 322.281 51.2391V50.7531C322.281 49.8171 322.539 49.0971 323.055 48.5931C323.571 48.0891 324.303 47.8371 325.251 47.8371H326.853C327.801 47.8371 328.533 48.0891 329.049 48.5931C329.565 49.0971 329.823 49.8171 329.823 50.7531V51.6531C329.823 52.6611 329.349 53.3151 328.401 53.6151C329.349 53.8191 329.823 54.4731 329.823 55.5771V56.4951C329.823 57.4311 329.565 58.1511 329.049 58.6551C328.533 59.1591 327.801 59.4111 326.853 59.4111H325.251C324.303 59.4111 323.571 59.1591 323.055 58.6551C322.539 58.1511 322.281 57.4311 322.281 56.4951V55.9911C322.281 55.7271 322.407 55.5951 322.659 55.5951H324.189C324.441 55.5951 324.567 55.7271 324.567 55.9911V56.4591C324.567 56.8431 324.645 57.1131 324.801 57.2691C324.957 57.4251 325.227 57.5031 325.611 57.5031H326.475C326.871 57.5031 327.153 57.4251 327.321 57.2691C327.501 57.1011 327.591 56.8311 327.591 56.4591V55.5771C327.591 55.2051 327.501 54.9411 327.321 54.7851C327.153 54.6171 326.871 54.5331 326.475 54.5331H325.557C325.305 54.5331 325.179 54.4071 325.179 54.1551V53.0751C325.179 52.8111 325.305 52.6791 325.557 52.6791Z" fill="#303030"/>
</svg>
