<svg width="397" height="105" viewBox="0 0 397 105" fill="none" xmlns="http://www.w3.org/2000/svg">
<rect width="198.25" height="105" fill="#7FA348"/>
<rect x="198.25" width="198.25" height="105" fill="#384D2B"/>
<path d="M76.8928 50.3571C77.1328 50.3571 77.2528 50.4831 77.2528 50.7351V51.7971C77.2528 52.0611 77.1328 52.1931 76.8928 52.1931H75.1288L74.4448 55.0551H76.0108C76.2508 55.0551 76.3708 55.1871 76.3708 55.4511V56.5131C76.3708 56.7651 76.2508 56.8911 76.0108 56.8911H73.9948L73.4728 59.0331C73.4248 59.2851 73.2928 59.4111 73.0768 59.4111H71.9428C71.6668 59.4111 71.5648 59.2791 71.6368 59.0151L72.1588 56.8911H70.1248L69.6028 59.0331C69.5308 59.2851 69.3748 59.4111 69.1348 59.4111H68.0728C67.8088 59.4111 67.7068 59.2791 67.7668 59.0151L68.2888 56.8911H66.8488C66.5968 56.8911 66.4708 56.7651 66.4708 56.5131V55.4511C66.4708 55.1871 66.5968 55.0551 66.8488 55.0551H68.7388L69.4228 52.1931H67.7308C67.4788 52.1931 67.3528 52.0611 67.3528 51.7971V50.7351C67.3528 50.4831 67.4788 50.3571 67.7308 50.3571H69.8728L70.3948 48.2151C70.4548 47.9631 70.5868 47.8371 70.7908 47.8371H71.9068C72.1828 47.8371 72.2908 47.9691 72.2308 48.2331L71.7088 50.3571H73.7428L74.2648 48.2151C74.3368 47.9631 74.4928 47.8371 74.7328 47.8371H75.7768C76.0648 47.8371 76.1728 47.9691 76.1008 48.2331L75.5788 50.3571H76.8928ZM72.6088 55.0551L73.2928 52.1931H71.2588L70.5748 55.0551H72.6088ZM80.9238 59.4111H79.2318C79.1238 59.4111 79.0458 59.3811 78.9978 59.3211C78.9618 59.2491 78.9738 59.1531 79.0338 59.0331L82.8318 49.9251H78.6018C78.3498 49.9251 78.2238 49.7991 78.2238 49.5471V48.2151C78.2238 47.9631 78.3498 47.8371 78.6018 47.8371H84.9018C85.1538 47.8371 85.2798 47.9631 85.2798 48.2151V49.7271C85.2798 49.9671 85.1958 50.2911 85.0278 50.6991L81.5358 59.0691C81.4398 59.2971 81.2358 59.4111 80.9238 59.4111ZM88.7118 59.4111H87.1818C86.9298 59.4111 86.8038 59.2851 86.8038 59.0331V48.2151C86.8038 47.9631 86.9298 47.8371 87.1818 47.8371H92.9238C93.1638 47.8371 93.2838 47.9631 93.2838 48.2151V49.4391C93.2838 49.6911 93.1638 49.8171 92.9238 49.8171H89.3058C89.1618 49.8171 89.0898 49.8831 89.0898 50.0151V52.8051C89.0898 52.9491 89.1618 53.0211 89.3058 53.0211H92.3838C92.6358 53.0211 92.7618 53.1471 92.7618 53.3991V54.6051C92.7618 54.8691 92.6358 55.0011 92.3838 55.0011H89.3058C89.1618 55.0011 89.0898 55.0671 89.0898 55.1991V59.0331C89.0898 59.2851 88.9638 59.4111 88.7118 59.4111ZM96.1133 59.4111H94.3853C94.1693 59.4111 94.0973 59.2851 94.1693 59.0331L97.0133 48.2151C97.0973 47.9631 97.2773 47.8371 97.5533 47.8371H99.9473C100.247 47.8371 100.427 47.9631 100.487 48.2151L103.331 59.0331C103.403 59.2851 103.331 59.4111 103.115 59.4111H101.387C101.255 59.4111 101.165 59.3871 101.117 59.3391C101.069 59.2791 101.033 59.1771 101.009 59.0331L100.505 57.0531H96.9953L96.4913 59.0331C96.4673 59.1771 96.4253 59.2791 96.3653 59.3391C96.3173 59.3871 96.2333 59.4111 96.1133 59.4111ZM98.7233 50.0151L97.4273 55.2171H100.091L98.7953 50.0151H98.7233ZM107.699 52.6791H108.617C109.013 52.6791 109.295 52.6011 109.463 52.4451C109.643 52.2771 109.733 52.0071 109.733 51.6351V50.7891C109.733 50.4171 109.643 50.1531 109.463 49.9971C109.295 49.8291 109.013 49.7451 108.617 49.7451H107.753C107.369 49.7451 107.099 49.8291 106.943 49.9971C106.787 50.1531 106.709 50.4171 106.709 50.7891V51.2391C106.709 51.4911 106.583 51.6171 106.331 51.6171H104.801C104.549 51.6171 104.423 51.4911 104.423 51.2391V50.7531C104.423 49.8171 104.681 49.0971 105.197 48.5931C105.713 48.0891 106.445 47.8371 107.393 47.8371H108.995C109.943 47.8371 110.675 48.0891 111.191 48.5931C111.707 49.0971 111.965 49.8171 111.965 50.7531V51.6531C111.965 52.6611 111.491 53.3151 110.543 53.6151C111.491 53.8191 111.965 54.4731 111.965 55.5771V56.4951C111.965 57.4311 111.707 58.1511 111.191 58.6551C110.675 59.1591 109.943 59.4111 108.995 59.4111H107.393C106.445 59.4111 105.713 59.1591 105.197 58.6551C104.681 58.1511 104.423 57.4311 104.423 56.4951V55.9911C104.423 55.7271 104.549 55.5951 104.801 55.5951H106.331C106.583 55.5951 106.709 55.7271 106.709 55.9911V56.4591C106.709 56.8431 106.787 57.1131 106.943 57.2691C107.099 57.4251 107.369 57.5031 107.753 57.5031H108.617C109.013 57.5031 109.295 57.4251 109.463 57.2691C109.643 57.1011 109.733 56.8311 109.733 56.4591V55.5771C109.733 55.2051 109.643 54.9411 109.463 54.7851C109.295 54.6171 109.013 54.5331 108.617 54.5331H107.699C107.447 54.5331 107.321 54.4071 107.321 54.1551V53.0751C107.321 52.8111 107.447 52.6791 107.699 52.6791ZM118.639 55.3251V49.7631L115.723 55.3251H118.639ZM120.421 59.4111H119.017C118.765 59.4111 118.639 59.2851 118.639 59.0331V57.3051H114.175C113.971 57.3051 113.809 57.2451 113.689 57.1251C113.569 57.0051 113.509 56.8431 113.509 56.6391V55.9371C113.509 55.5771 113.569 55.2831 113.689 55.0551L117.271 48.3951C117.391 48.1791 117.499 48.0351 117.595 47.9631C117.703 47.8791 117.859 47.8371 118.063 47.8371H120.097C120.301 47.8371 120.463 47.8971 120.583 48.0171C120.715 48.1371 120.781 48.2991 120.781 48.5031V55.3251H122.077C122.317 55.3251 122.437 55.4451 122.437 55.6851V56.8911C122.437 57.1671 122.317 57.3051 122.077 57.3051H120.781V59.0331C120.781 59.1771 120.751 59.2791 120.691 59.3391C120.643 59.3871 120.553 59.4111 120.421 59.4111ZM126.919 57.4491H128.143C128.527 57.4491 128.797 57.3711 128.953 57.2151C129.109 57.0591 129.187 56.7951 129.187 56.4231V55.5951C129.187 55.2111 129.109 54.9291 128.953 54.7491C128.797 54.5691 128.527 54.4791 128.143 54.4791H126.919C126.535 54.4791 126.265 54.5691 126.109 54.7491C125.953 54.9291 125.875 55.2111 125.875 55.5951V56.4231C125.875 56.7951 125.953 57.0591 126.109 57.2151C126.265 57.3711 126.535 57.4491 126.919 57.4491ZM126.919 52.6971H128.143C128.527 52.6971 128.797 52.6071 128.953 52.4271C129.109 52.2471 129.187 51.9651 129.187 51.5811V50.8251C129.187 50.4531 129.109 50.1891 128.953 50.0331C128.797 49.8771 128.527 49.7991 128.143 49.7991H126.919C126.535 49.7991 126.265 49.8771 126.109 50.0331C125.953 50.1891 125.875 50.4531 125.875 50.8251V51.5811C125.875 51.9651 125.953 52.2471 126.109 52.4271C126.265 52.6071 126.535 52.6971 126.919 52.6971ZM128.485 59.4111H126.577C125.617 59.4111 124.879 59.1771 124.363 58.7091C123.859 58.2291 123.607 57.5271 123.607 56.6031V55.7751C123.607 54.6711 124.003 53.9451 124.795 53.5971C124.003 53.2731 123.607 52.5411 123.607 51.4011V50.6271C123.607 49.7031 123.859 49.0071 124.363 48.5391C124.879 48.0711 125.617 47.8371 126.577 47.8371H128.485C129.433 47.8371 130.159 48.0711 130.663 48.5391C131.179 49.0071 131.437 49.7031 131.437 50.6271V51.4011C131.437 51.9651 131.329 52.4451 131.113 52.8411C130.897 53.2371 130.615 53.4891 130.267 53.5971C131.047 53.9091 131.437 54.6411 131.437 55.7931V56.6031C131.437 57.5271 131.179 58.2291 130.663 58.7091C130.159 59.1771 129.433 59.4111 128.485 59.4111Z" fill="white"/>
<path d="M272.495 50.3571C272.735 50.3571 272.855 50.4831 272.855 50.7351V51.7971C272.855 52.0611 272.735 52.1931 272.495 52.1931H270.731L270.047 55.0551H271.613C271.853 55.0551 271.973 55.1871 271.973 55.4511V56.5131C271.973 56.7651 271.853 56.8911 271.613 56.8911H269.597L269.075 59.0331C269.027 59.2851 268.895 59.4111 268.679 59.4111H267.545C267.269 59.4111 267.167 59.2791 267.239 59.0151L267.761 56.8911H265.727L265.205 59.0331C265.133 59.2851 264.977 59.4111 264.737 59.4111H263.675C263.411 59.4111 263.309 59.2791 263.369 59.0151L263.891 56.8911H262.451C262.199 56.8911 262.073 56.7651 262.073 56.5131V55.4511C262.073 55.1871 262.199 55.0551 262.451 55.0551H264.341L265.025 52.1931H263.333C263.081 52.1931 262.955 52.0611 262.955 51.7971V50.7351C262.955 50.4831 263.081 50.3571 263.333 50.3571H265.475L265.997 48.2151C266.057 47.9631 266.189 47.8371 266.393 47.8371H267.509C267.785 47.8371 267.893 47.9691 267.833 48.2331L267.311 50.3571H269.345L269.867 48.2151C269.939 47.9631 270.095 47.8371 270.335 47.8371H271.379C271.667 47.8371 271.775 47.9691 271.703 48.2331L271.181 50.3571H272.495ZM268.211 55.0551L268.895 52.1931H266.861L266.177 55.0551H268.211ZM277.426 52.6791H278.344C278.74 52.6791 279.022 52.6011 279.19 52.4451C279.37 52.2771 279.46 52.0071 279.46 51.6351V50.7891C279.46 50.4171 279.37 50.1531 279.19 49.9971C279.022 49.8291 278.74 49.7451 278.344 49.7451H277.48C277.096 49.7451 276.826 49.8291 276.67 49.9971C276.514 50.1531 276.436 50.4171 276.436 50.7891V51.2391C276.436 51.4911 276.31 51.6171 276.058 51.6171H274.528C274.276 51.6171 274.15 51.4911 274.15 51.2391V50.7531C274.15 49.8171 274.408 49.0971 274.924 48.5931C275.44 48.0891 276.172 47.8371 277.12 47.8371H278.722C279.67 47.8371 280.402 48.0891 280.918 48.5931C281.434 49.0971 281.692 49.8171 281.692 50.7531V51.6531C281.692 52.6611 281.218 53.3151 280.27 53.6151C281.218 53.8191 281.692 54.4731 281.692 55.5771V56.4951C281.692 57.4311 281.434 58.1511 280.918 58.6551C280.402 59.1591 279.67 59.4111 278.722 59.4111H277.12C276.172 59.4111 275.44 59.1591 274.924 58.6551C274.408 58.1511 274.15 57.4311 274.15 56.4951V55.9911C274.15 55.7271 274.276 55.5951 274.528 55.5951H276.058C276.31 55.5951 276.436 55.7271 276.436 55.9911V56.4591C276.436 56.8431 276.514 57.1131 276.67 57.2691C276.826 57.4251 277.096 57.5031 277.48 57.5031H278.344C278.74 57.5031 279.022 57.4251 279.19 57.2691C279.37 57.1011 279.46 56.8311 279.46 56.4591V55.5771C279.46 55.2051 279.37 54.9411 279.19 54.7851C279.022 54.6171 278.74 54.5331 278.344 54.5331H277.426C277.174 54.5331 277.048 54.4071 277.048 54.1551V53.0751C277.048 52.8111 277.174 52.6791 277.426 52.6791ZM286.908 57.4491H288.132C288.516 57.4491 288.786 57.3711 288.942 57.2151C289.098 57.0591 289.176 56.7951 289.176 56.4231V55.5951C289.176 55.2111 289.098 54.9291 288.942 54.7491C288.786 54.5691 288.516 54.4791 288.132 54.4791H286.908C286.524 54.4791 286.254 54.5691 286.098 54.7491C285.942 54.9291 285.864 55.2111 285.864 55.5951V56.4231C285.864 56.7951 285.942 57.0591 286.098 57.2151C286.254 57.3711 286.524 57.4491 286.908 57.4491ZM286.908 52.6971H288.132C288.516 52.6971 288.786 52.6071 288.942 52.4271C289.098 52.2471 289.176 51.9651 289.176 51.5811V50.8251C289.176 50.4531 289.098 50.1891 288.942 50.0331C288.786 49.8771 288.516 49.7991 288.132 49.7991H286.908C286.524 49.7991 286.254 49.8771 286.098 50.0331C285.942 50.1891 285.864 50.4531 285.864 50.8251V51.5811C285.864 51.9651 285.942 52.2471 286.098 52.4271C286.254 52.6071 286.524 52.6971 286.908 52.6971ZM288.474 59.4111H286.566C285.606 59.4111 284.868 59.1771 284.352 58.7091C283.848 58.2291 283.596 57.5271 283.596 56.6031V55.7751C283.596 54.6711 283.992 53.9451 284.784 53.5971C283.992 53.2731 283.596 52.5411 283.596 51.4011V50.6271C283.596 49.7031 283.848 49.0071 284.352 48.5391C284.868 48.0711 285.606 47.8371 286.566 47.8371H288.474C289.422 47.8371 290.148 48.0711 290.652 48.5391C291.168 49.0071 291.426 49.7031 291.426 50.6271V51.4011C291.426 51.9651 291.318 52.4451 291.102 52.8411C290.886 53.2371 290.604 53.4891 290.256 53.5971C291.036 53.9091 291.426 54.6411 291.426 55.7931V56.6031C291.426 57.5271 291.168 58.2291 290.652 58.7091C290.148 59.1771 289.422 59.4111 288.474 59.4111ZM298.122 55.3251V49.7631L295.206 55.3251H298.122ZM299.904 59.4111H298.5C298.248 59.4111 298.122 59.2851 298.122 59.0331V57.3051H293.658C293.454 57.3051 293.292 57.2451 293.172 57.1251C293.052 57.0051 292.992 56.8431 292.992 56.6391V55.9371C292.992 55.5771 293.052 55.2831 293.172 55.0551L296.754 48.3951C296.874 48.1791 296.982 48.0351 297.078 47.9631C297.186 47.8791 297.342 47.8371 297.546 47.8371H299.58C299.784 47.8371 299.946 47.8971 300.066 48.0171C300.198 48.1371 300.264 48.2991 300.264 48.5031V55.3251H301.56C301.8 55.3251 301.92 55.4451 301.92 55.6851V56.8911C301.92 57.1671 301.8 57.3051 301.56 57.3051H300.264V59.0331C300.264 59.1771 300.234 59.2791 300.174 59.3391C300.126 59.3871 300.036 59.4111 299.904 59.4111ZM305.79 57.4311H307.752C308.136 57.4311 308.406 57.3531 308.562 57.1971C308.73 57.0291 308.814 56.7531 308.814 56.3691V50.8791C308.814 50.4951 308.73 50.2251 308.562 50.0691C308.406 49.9011 308.136 49.8171 307.752 49.8171H305.79C305.658 49.8171 305.592 49.8831 305.592 50.0151V57.2331C305.592 57.3651 305.658 57.4311 305.79 57.4311ZM303.306 59.0331V48.2151C303.306 47.9631 303.432 47.8371 303.684 47.8371H308.13C309.066 47.8371 309.792 48.0951 310.308 48.6111C310.836 49.1151 311.1 49.8351 311.1 50.7711V56.4771C311.1 57.4131 310.836 58.1391 310.308 58.6551C309.792 59.1591 309.066 59.4111 308.13 59.4111H303.684C303.432 59.4111 303.306 59.2851 303.306 59.0331ZM312.932 59.0331V57.3231C312.932 56.6391 313.226 56.0571 313.814 55.5771L317.126 52.7691C317.666 52.3251 317.936 51.8451 317.936 51.3291V50.7891C317.936 50.4171 317.846 50.1531 317.666 49.9971C317.498 49.8291 317.216 49.7451 316.82 49.7451H316.19C315.806 49.7451 315.536 49.8291 315.38 49.9971C315.224 50.1531 315.146 50.4171 315.146 50.7891V51.3651C315.146 51.6291 315.02 51.7611 314.768 51.7611H313.238C312.986 51.7611 312.86 51.6291 312.86 51.3651V50.7531C312.86 49.8171 313.118 49.0971 313.634 48.5931C314.15 48.0891 314.882 47.8371 315.83 47.8371H317.198C318.146 47.8371 318.878 48.0891 319.394 48.5931C319.91 49.0971 320.168 49.8171 320.168 50.7531V51.4731C320.168 52.4091 319.808 53.1831 319.088 53.7951L315.704 56.6751C315.56 56.8071 315.488 56.9511 315.488 57.1071V57.3951H319.79C320.042 57.3951 320.168 57.5211 320.168 57.7731V59.0331C320.168 59.2851 320.042 59.4111 319.79 59.4111H313.31C313.058 59.4111 312.932 59.2851 312.932 59.0331ZM324.617 57.5031H326.633C327.029 57.5031 327.311 57.4251 327.479 57.2691C327.659 57.1011 327.749 56.8311 327.749 56.4591V55.4151C327.749 55.0431 327.659 54.7791 327.479 54.6231C327.299 54.4671 327.005 54.3891 326.597 54.3891H324.617C324.485 54.3891 324.419 54.4551 324.419 54.5871V57.3051C324.419 57.4371 324.485 57.5031 324.617 57.5031ZM324.617 52.5351H326.453C326.837 52.5351 327.119 52.4571 327.299 52.3011C327.479 52.1331 327.569 51.8631 327.569 51.4911V50.7891C327.569 50.4171 327.479 50.1531 327.299 49.9971C327.131 49.8291 326.855 49.7451 326.471 49.7451H324.617C324.485 49.7451 324.419 49.8111 324.419 49.9431V52.3371C324.419 52.4691 324.485 52.5351 324.617 52.5351ZM322.133 59.0331V48.2151C322.133 47.9631 322.259 47.8371 322.511 47.8371H326.831C327.779 47.8371 328.511 48.0891 329.027 48.5931C329.543 49.0971 329.801 49.8171 329.801 50.7531V51.4911C329.801 52.5111 329.327 53.1711 328.379 53.4711C328.859 53.5431 329.243 53.7411 329.531 54.0651C329.819 54.3771 329.963 54.8271 329.963 55.4151V56.4951C329.963 57.4311 329.705 58.1511 329.189 58.6551C328.673 59.1591 327.947 59.4111 327.011 59.4111H322.511C322.259 59.4111 322.133 59.2851 322.133 59.0331Z" fill="white"/>
</svg>
