<svg width="37" height="37" viewBox="0 0 37 37" fill="none" xmlns="http://www.w3.org/2000/svg">
<path fill-rule="evenodd" clip-rule="evenodd" d="M18.5 37C28.7173 37 37 28.7173 37 18.5C37 8.28273 28.7173 0 18.5 0C8.28273 0 0 8.28273 0 18.5C0 28.7173 8.28273 37 18.5 37ZM26.64 10.84L17.64 10.84C17.0877 10.84 16.64 11.2877 16.64 11.84C16.64 12.3923 17.0877 12.84 17.64 12.84H24.2258L11.1329 25.9329C10.7424 26.3234 10.7424 26.9566 11.1329 27.3471C11.5234 27.7376 12.1566 27.7376 12.5471 27.3471L25.64 14.2542V20.84C25.64 21.3923 26.0877 21.84 26.64 21.84C27.1923 21.84 27.64 21.3923 27.64 20.84L27.64 11.84C27.64 11.2877 27.1923 10.84 26.64 10.84Z" fill="#F4B331"/>
</svg>
