<svg width="1440" height="554" viewBox="0 0 1440 554" fill="none" xmlns="http://www.w3.org/2000/svg">
<rect width="1440" height="554" fill="#33B44A"/>
<path d="M811.612 229.769C840.971 243.573 891.478 238.643 921.334 253.926C952.683 269.948 968.357 313.579 995.974 332.066C1003.19 336.996 1017.62 336.996 1026.83 343.405C1080.82 381.366 1029.06 419.574 987.266 415.383C977.065 429.187 967.113 442.991 956.912 456.796C890.731 532.225 827.287 485.39 769.814 469.121C735.977 459.507 678.255 476.762 659.594 460C640.934 443.238 618.293 423.271 603.365 409.714C583.71 389.008 587.94 373.478 570.772 359.428C559.079 349.814 545.395 351.786 534.447 343.898C459.558 290.901 443.137 255.158 458.065 165.186C454.582 134.127 390.391 131.169 390.391 107.998C390.391 84.8265 397.606 80.143 405.319 73.9805C413.032 67.818 421.491 55 436.917 55C452.343 55 489.663 94.9331 501.854 100.356C538.428 80.636 617.049 108.984 635.71 132.894C649.394 149.656 648.896 156.065 658.848 160.995C668.8 165.925 666.312 162.967 686.714 166.172C707.116 169.376 737.221 179.483 761.106 189.096C785.488 198.956 811.612 229.769 811.612 229.769Z" fill="#384D2B"/>
<path d="M999.458 356.961C997.965 363.124 859.382 451.124 760.359 368.547C710.35 388.267 642.925 345.869 651.135 350.306C659.097 354.496 644.915 347.348 634.963 335.762C625.011 324.177 618.045 304.456 605.605 289.42C593.165 274.383 560.323 281.532 538.428 264.77C492.649 229.52 504.094 179.727 490.907 143.738C485.682 133.878 471.749 116.377 475.233 113.912C478.467 111.447 483.443 122.046 489.663 123.525C498.62 125.744 543.156 109.968 556.84 108.735C532.208 99.8612 513.797 114.898 491.405 104.791C471.501 95.1777 448.113 64.1187 438.908 64.1187C429.702 64.1187 423.233 67.8162 413.53 80.1412C403.827 92.4662 401.09 98.3822 403.827 105.038C406.563 111.693 454.582 126.483 468.266 155.077C481.204 182.192 461.549 222.618 486.18 266.002C515.787 318.261 564.055 307.908 596.648 330.093C620.782 346.608 626.255 383.09 653.126 401.578C689.949 426.721 718.063 416.368 756.627 418.093C780.512 419.326 802.158 440.525 826.541 440.525C864.856 440.525 897.449 428.939 939.248 403.057C939.248 403.057 961.142 383.337 969.602 385.062C984.281 388.02 1006.18 408.233 1012.64 405.275C1019.11 402.317 1042.75 388.513 1038.27 372.244C1034.04 345.129 1003.44 346.608 990.998 337.981L975.573 326.148C977.563 333.79 981.295 342.171 984.281 345.622C984.032 346.115 1000.95 350.799 999.458 356.961Z" fill="url(#paint0_linear)"/>
<path d="M833.01 465.177C855.402 493.278 918.349 490.32 968.358 415.877C968.358 413.165 971.841 408.482 961.142 412.672C921.334 446.443 861.622 462.465 833.01 465.177Z" fill="url(#paint1_linear)"/>
<path d="M638.944 411.192C659.097 442.99 718.312 468.133 742.446 441.018C746.427 435.842 769.565 424.01 734.982 433.377C700.398 442.744 674.274 422.284 638.944 411.192Z" fill="url(#paint2_linear)"/>
<path d="M620.284 137.331C590.428 116.871 546.141 113.667 501.605 141.521C510.562 172.087 507.079 222.866 542.409 248.995C587.442 282.273 608.093 254.172 637.949 218.922C646.408 208.816 659.843 206.104 659.346 195.258C657.853 182.194 650.389 168.636 638.695 154.339C638.695 154.339 637.949 150.642 620.284 137.331Z" fill="url(#paint3_linear)"/>
<path d="M666.064 174.797C669.796 182.685 668.801 186.382 675.27 188.601C681.987 191.066 687.212 189.094 694.427 185.889C686.217 178.987 675.27 175.29 666.064 174.797Z" fill="#90CA6F"/>
<path d="M677.259 348.336C751.153 381.613 760.11 302.733 813.354 258.116C771.804 191.068 690.197 174.799 650.14 223.606C638.695 243.819 626.006 262.06 619.786 286.218C631.977 303.473 641.681 326.151 660.341 338.476L677.259 348.336Z" fill="#FFDB63"/>
<path d="M818.579 243.325C820.569 246.776 822.559 249.981 824.55 253.432C829.526 251.706 834.502 249.734 839.229 248.009C832.263 243.325 826.291 241.6 818.579 243.325Z" fill="#72B647"/>
<path d="M905.162 262.8C877.048 246.038 816.838 260.581 805.144 279.315C793.45 298.296 777.776 317.769 771.307 342.666C828.531 429.681 895.21 384.818 969.851 344.391C960.894 318.262 951.439 283.013 918.598 268.716L905.162 262.8Z" fill="url(#paint4_linear)"/>
<path d="M666.063 276.11C673.896 276.11 680.245 269.819 680.245 262.059C680.245 254.299 673.896 248.009 666.063 248.009C658.231 248.009 651.882 254.299 651.882 262.059C651.882 269.819 658.231 276.11 666.063 276.11Z" fill="#344321"/>
<path d="M771.307 276.11C779.139 276.11 785.488 269.819 785.488 262.059C785.488 254.299 779.139 248.009 771.307 248.009C763.474 248.009 757.125 254.299 757.125 262.059C757.125 269.819 763.474 276.11 771.307 276.11Z" fill="#344321"/>
<path d="M695.172 279.809L738.464 270.688C738.464 270.688 732.741 305.938 715.823 306.431C698.407 306.677 695.172 279.809 695.172 279.809Z" fill="#344321"/>
<path d="M703.633 285.968C700.15 288.433 707.365 299.032 712.092 300.265C716.82 301.497 716.82 299.525 716.82 293.116C716.82 286.707 707.116 283.503 703.633 285.968Z" fill="#E09343"/>
<defs>
<linearGradient id="paint0_linear" x1="402.822" y1="440.525" x2="1038.83" y2="440.525" gradientUnits="userSpaceOnUse">
<stop stop-color="#D6E038"/>
<stop offset="0.0753143" stop-color="#C9DB3B"/>
<stop offset="0.3883" stop-color="#93C943"/>
<stop offset="0.6578" stop-color="#68BD47"/>
<stop offset="0.8705" stop-color="#44B64A"/>
<stop offset="1" stop-color="#30B44A"/>
</linearGradient>
<linearGradient id="paint1_linear" x1="413.842" y1="608.508" x2="1038.62" y2="608.508" gradientUnits="userSpaceOnUse">
<stop stop-color="#D6E038"/>
<stop offset="0.0753143" stop-color="#C9DB3B"/>
<stop offset="0.3883" stop-color="#93C943"/>
<stop offset="0.6578" stop-color="#68BD47"/>
<stop offset="0.8705" stop-color="#44B64A"/>
<stop offset="1" stop-color="#30B44A"/>
</linearGradient>
<linearGradient id="paint2_linear" x1="412.664" y1="544.763" x2="1039.31" y2="544.763" gradientUnits="userSpaceOnUse">
<stop stop-color="#D6E038"/>
<stop offset="0.0753143" stop-color="#C9DB3B"/>
<stop offset="0.3883" stop-color="#93C943"/>
<stop offset="0.6578" stop-color="#68BD47"/>
<stop offset="0.8705" stop-color="#44B64A"/>
<stop offset="1" stop-color="#30B44A"/>
</linearGradient>
<linearGradient id="paint3_linear" x1="405.062" y1="485.243" x2="1052.75" y2="485.243" gradientUnits="userSpaceOnUse">
<stop stop-color="#D6E038"/>
<stop offset="0.0753143" stop-color="#C9DB3B"/>
<stop offset="0.3883" stop-color="#93C943"/>
<stop offset="0.6578" stop-color="#68BD47"/>
<stop offset="0.8705" stop-color="#44B64A"/>
<stop offset="1" stop-color="#30B44A"/>
</linearGradient>
<linearGradient id="paint4_linear" x1="410.118" y1="545.897" x2="1052.34" y2="545.897" gradientUnits="userSpaceOnUse">
<stop stop-color="#D6E038"/>
<stop offset="0.0753143" stop-color="#C9DB3B"/>
<stop offset="0.3883" stop-color="#93C943"/>
<stop offset="0.6578" stop-color="#68BD47"/>
<stop offset="0.8705" stop-color="#44B64A"/>
<stop offset="1" stop-color="#30B44A"/>
</linearGradient>
</defs>
</svg>
