<svg width="53" height="53" viewBox="0 0 53 53" fill="none" xmlns="http://www.w3.org/2000/svg">
<path fill-rule="evenodd" clip-rule="evenodd" d="M13.0815 13.0817C20.3062 5.85705 32.0197 5.85705 39.2444 13.0817C46.4691 20.3064 46.4691 32.02 39.2444 39.2447C32.0197 46.4694 20.3062 46.4694 13.0815 39.2447C5.85679 32.02 5.85679 20.3064 13.0815 13.0817ZM37.3353 25.8238L30.9713 32.1878C30.5808 32.5783 29.9476 32.5783 29.5571 32.1878C29.1666 31.7972 29.1666 31.1641 29.5571 30.7736L34.2139 26.1167H15.6978C15.1455 26.1167 14.6978 25.669 14.6978 25.1167C14.6978 24.5644 15.1455 24.1167 15.6978 24.1167L34.2139 24.1167L29.5571 19.4598C29.1666 19.0693 29.1666 18.4362 29.5571 18.0456C29.9476 17.6551 30.5808 17.6551 30.9713 18.0456L37.3353 24.4096C37.7258 24.8001 37.7258 25.4333 37.3353 25.8238Z" fill="#E5E5E5" fill-opacity="0.4"/>
</svg>
