<svg width="53" height="53" viewBox="0 0 53 53" fill="none" xmlns="http://www.w3.org/2000/svg">
<path fill-rule="evenodd" clip-rule="evenodd" d="M13.0815 39.2444C20.3062 46.4691 32.0197 46.4691 39.2444 39.2444C46.4691 32.0197 46.4691 20.3062 39.2444 13.0815C32.0197 5.85678 20.3062 5.85678 13.0815 13.0815C5.85679 20.3062 5.85679 32.0197 13.0815 39.2444ZM37.3353 26.5024L30.9713 20.1384C30.5808 19.7479 29.9476 19.7479 29.5571 20.1384C29.1666 20.5289 29.1666 21.1621 29.5571 21.5526L34.2139 26.2095H15.6978C15.1455 26.2095 14.6978 26.6572 14.6978 27.2095C14.6978 27.7618 15.1455 28.2095 15.6978 28.2095L34.2139 28.2095L29.5571 32.8663C29.1666 33.2568 29.1666 33.89 29.5571 34.2805C29.9476 34.6711 30.5808 34.6711 30.9713 34.2805L37.3353 27.9166C37.7258 27.5261 37.7258 26.8929 37.3353 26.5024Z" fill="#F4B331"/>
</svg>
