<svg width="53" height="53" viewBox="0 0 53 53" fill="none" xmlns="http://www.w3.org/2000/svg">
<path fill-rule="evenodd" clip-rule="evenodd" d="M39.2444 13.0817C32.0197 5.85705 20.3062 5.85705 13.0815 13.0817C5.85679 20.3064 5.85679 32.02 13.0815 39.2447C20.3062 46.4694 32.0197 46.4694 39.2444 39.2447C46.4691 32.02 46.4691 20.3064 39.2444 13.0817ZM14.9907 25.8238L21.3546 32.1878C21.7452 32.5783 22.3783 32.5783 22.7689 32.1878C23.1594 31.7972 23.1594 31.1641 22.7689 30.7736L18.112 26.1167H36.6281C37.1804 26.1167 37.6281 25.669 37.6281 25.1167C37.6281 24.5644 37.1804 24.1167 36.6281 24.1167L18.112 24.1167L22.7689 19.4598C23.1594 19.0693 23.1594 18.4362 22.7689 18.0456C22.3783 17.6551 21.7452 17.6551 21.3546 18.0456L14.9907 24.4096C14.6002 24.8001 14.6002 25.4333 14.9907 25.8238Z" fill="#E5E5E5" fill-opacity="0.4"/>
</svg>
