<svg width="53" height="53" viewBox="0 0 53 53" fill="none" xmlns="http://www.w3.org/2000/svg">
<path fill-rule="evenodd" clip-rule="evenodd" d="M39.2444 39.2444C32.0197 46.4691 20.3062 46.4691 13.0815 39.2444C5.85679 32.0197 5.85679 20.3062 13.0815 13.0815C20.3062 5.85678 32.0197 5.85678 39.2444 13.0815C46.4691 20.3062 46.4691 32.0197 39.2444 39.2444ZM14.9907 26.5024L21.3546 20.1384C21.7452 19.7479 22.3783 19.7479 22.7689 20.1384C23.1594 20.5289 23.1594 21.1621 22.7689 21.5526L18.112 26.2095H36.6281C37.1804 26.2095 37.6281 26.6572 37.6281 27.2095C37.6281 27.7618 37.1804 28.2095 36.6281 28.2095L18.112 28.2095L22.7689 32.8663C23.1594 33.2568 23.1594 33.89 22.7689 34.2805C22.3783 34.6711 21.7452 34.6711 21.3546 34.2805L14.9907 27.9166C14.6002 27.5261 14.6002 26.8929 14.9907 26.5024Z" fill="#F4B331"/>
</svg>
