<svg width="254" height="171" viewBox="0 0 254 171" fill="none" xmlns="http://www.w3.org/2000/svg">
<path d="M162.202 67.2994C173.508 72.615 192.957 70.7165 204.454 76.6017C216.525 82.7716 222.561 99.5727 233.196 106.692C235.974 108.59 241.531 108.59 245.076 111.058C265.866 125.676 245.938 140.389 229.843 138.775C225.915 144.091 222.082 149.406 218.154 154.722C192.669 183.768 168.238 165.733 146.107 159.468C133.077 155.766 110.85 162.411 103.664 155.956C96.4784 149.501 87.7599 141.813 82.0114 136.592C74.4426 128.619 76.0713 122.639 69.4606 117.228C64.9576 113.526 59.6882 114.286 55.4727 111.248C26.6345 90.8399 20.3112 77.0763 26.0597 42.4299C24.7184 30.4698 0 29.3307 0 20.4081C0 11.4855 2.77842 9.68199 5.74846 7.30896C8.7185 4.93592 11.976 0 17.916 0C23.8561 0 38.2273 15.3773 42.9218 17.4656C57.0056 9.87184 87.2808 20.7878 94.4664 29.9952C99.7358 36.4499 99.5442 38.9178 103.377 40.8163C107.209 42.7147 106.251 41.5756 114.107 42.8096C121.963 44.0436 133.556 47.9354 142.753 51.6373C152.143 55.4342 162.202 67.2994 162.202 67.2994Z" fill="#384D2B"/>
<path d="M234.537 116.279C233.963 118.652 180.598 152.539 142.466 120.74C123.209 128.334 97.245 112.008 100.407 113.716C103.472 115.33 98.0114 112.577 94.1791 108.116C90.3468 103.654 87.6642 96.0607 82.8738 90.2705C78.0834 84.4803 65.4368 87.233 57.0057 80.7784C39.3771 67.2046 43.7843 48.0304 38.7065 34.1719C36.6945 30.375 31.3293 23.6356 32.6706 22.6864C33.9161 21.7372 35.8322 25.8188 38.2274 26.3883C41.6765 27.2426 58.8261 21.1677 64.0955 20.693C54.6105 17.2759 47.5208 23.0661 38.8981 19.1743C31.2335 15.4724 22.2275 3.51225 18.6827 3.51225C15.1378 3.51225 12.6468 4.93608 8.91027 9.68215C5.17376 14.4282 4.11988 16.7063 5.17376 19.2692C6.22765 21.8321 24.7185 27.5274 29.988 38.5383C34.97 48.9797 27.4012 64.5468 36.8861 81.253C48.2872 101.376 66.8739 97.3896 79.4247 105.933C88.7181 112.292 90.8259 126.341 101.173 133.46C115.353 143.142 126.179 139.155 141.029 139.82C150.227 140.294 158.562 148.457 167.951 148.457C182.705 148.457 195.256 143.996 211.352 134.029C211.352 134.029 219.783 126.436 223.04 127.1C228.693 128.239 237.124 136.023 239.615 134.884C242.106 133.745 251.208 128.429 249.483 122.164C247.855 111.723 236.07 112.292 231.28 108.97L225.34 104.414C226.106 107.356 227.543 110.584 228.693 111.913C228.597 112.102 235.112 113.906 234.537 116.279Z" fill="url(#paint0_linear)"/>
<path d="M170.442 157.949C179.065 168.771 203.304 167.631 222.561 138.965C222.561 137.921 223.903 136.118 219.783 137.731C204.454 150.735 181.46 156.905 170.442 157.949Z" fill="url(#paint1_linear)"/>
<path d="M95.712 137.162C103.472 149.406 126.275 159.088 135.568 148.647C137.101 146.654 146.011 142.098 132.694 145.705C119.376 149.312 109.317 141.433 95.712 137.162Z" fill="url(#paint2_linear)"/>
<path d="M88.5263 31.7039C77.0294 23.8254 59.9756 22.5914 42.826 33.3175C46.2751 45.0878 44.9338 64.6416 58.5385 74.7033C75.8797 87.5177 83.8317 76.6967 95.3287 63.1229C98.5861 59.2311 103.76 58.187 103.568 54.0104C102.993 48.9796 100.119 43.7589 95.6161 38.2535C95.6161 38.2535 95.3287 36.8296 88.5263 31.7039Z" fill="url(#paint3_linear)"/>
<path d="M106.155 46.1319C107.592 49.1694 107.209 50.5932 109.7 51.4475C112.287 52.3967 114.299 51.6374 117.077 50.4034C113.915 47.7456 109.7 46.3218 106.155 46.1319Z" fill="#90CA6F"/>
<path d="M110.466 112.957C138.921 125.771 142.37 95.3961 162.873 78.2153C146.873 52.3966 115.448 46.1318 100.023 64.9263C95.616 72.7098 90.7298 79.734 88.3346 89.0364C93.0292 95.6809 96.7657 104.414 103.951 109.16L110.466 112.957Z" fill="#FFDB63"/>
<path d="M164.885 72.5202C165.651 73.8491 166.418 75.0831 167.184 76.412C169.101 75.7475 171.017 74.9882 172.837 74.3237C170.154 72.5202 167.855 71.8557 164.885 72.5202Z" fill="#72B647"/>
<path d="M198.226 80.0189C187.4 73.5642 164.214 79.1646 159.711 86.3786C155.208 93.6876 149.173 101.186 146.682 110.773C168.717 144.281 194.394 127.005 223.136 111.438C219.687 101.376 216.046 87.8025 203.4 82.297L198.226 80.0189Z" fill="url(#paint4_linear)"/>
<path d="M106.155 85.1447C109.171 85.1447 111.616 82.7223 111.616 79.7342C111.616 76.746 109.171 74.3237 106.155 74.3237C103.139 74.3237 100.694 76.746 100.694 79.7342C100.694 82.7223 103.139 85.1447 106.155 85.1447Z" fill="#344321"/>
<path d="M146.682 85.1447C149.698 85.1447 152.143 82.7223 152.143 79.7342C152.143 76.746 149.698 74.3237 146.682 74.3237C143.666 74.3237 141.221 76.746 141.221 79.7342C141.221 82.7223 143.666 85.1447 146.682 85.1447Z" fill="#344321"/>
<path d="M117.364 86.5685L134.035 83.0564C134.035 83.0564 131.831 96.6302 125.316 96.82C118.61 96.9149 117.364 86.5685 117.364 86.5685Z" fill="#344321"/>
<path d="M120.622 88.9414C119.28 89.8906 122.059 93.9723 123.879 94.4469C125.7 94.9215 125.7 94.1621 125.7 91.6942C125.7 89.2262 121.963 87.9922 120.622 88.9414Z" fill="#E09343"/>
<defs>
<linearGradient id="paint0_linear" x1="4.78708" y1="148.457" x2="249.699" y2="148.457" gradientUnits="userSpaceOnUse">
<stop stop-color="#D6E038"/>
<stop offset="0.0753143" stop-color="#C9DB3B"/>
<stop offset="0.3883" stop-color="#93C943"/>
<stop offset="0.6578" stop-color="#68BD47"/>
<stop offset="0.8705" stop-color="#44B64A"/>
<stop offset="1" stop-color="#30B44A"/>
</linearGradient>
<linearGradient id="paint1_linear" x1="9.03023" y1="213.143" x2="249.618" y2="213.143" gradientUnits="userSpaceOnUse">
<stop stop-color="#D6E038"/>
<stop offset="0.0753143" stop-color="#C9DB3B"/>
<stop offset="0.3883" stop-color="#93C943"/>
<stop offset="0.6578" stop-color="#68BD47"/>
<stop offset="0.8705" stop-color="#44B64A"/>
<stop offset="1" stop-color="#30B44A"/>
</linearGradient>
<linearGradient id="paint2_linear" x1="8.57669" y1="188.597" x2="249.882" y2="188.597" gradientUnits="userSpaceOnUse">
<stop stop-color="#D6E038"/>
<stop offset="0.0753143" stop-color="#C9DB3B"/>
<stop offset="0.3883" stop-color="#93C943"/>
<stop offset="0.6578" stop-color="#68BD47"/>
<stop offset="0.8705" stop-color="#44B64A"/>
<stop offset="1" stop-color="#30B44A"/>
</linearGradient>
<linearGradient id="paint3_linear" x1="5.6494" y1="165.677" x2="255.061" y2="165.677" gradientUnits="userSpaceOnUse">
<stop stop-color="#D6E038"/>
<stop offset="0.0753143" stop-color="#C9DB3B"/>
<stop offset="0.3883" stop-color="#93C943"/>
<stop offset="0.6578" stop-color="#68BD47"/>
<stop offset="0.8705" stop-color="#44B64A"/>
<stop offset="1" stop-color="#30B44A"/>
</linearGradient>
<linearGradient id="paint4_linear" x1="7.59592" y1="189.033" x2="254.9" y2="189.033" gradientUnits="userSpaceOnUse">
<stop stop-color="#D6E038"/>
<stop offset="0.0753143" stop-color="#C9DB3B"/>
<stop offset="0.3883" stop-color="#93C943"/>
<stop offset="0.6578" stop-color="#68BD47"/>
<stop offset="0.8705" stop-color="#44B64A"/>
<stop offset="1" stop-color="#30B44A"/>
</linearGradient>
</defs>
</svg>
