<svg width="132" height="136" viewBox="0 0 132 136" fill="none" xmlns="http://www.w3.org/2000/svg">
<path d="M4.23566 135.955H7.85148C10.021 135.955 11.9012 134.219 11.9012 131.905V67.8328L65.7047 14.0294L119.508 67.8328V106.594H41.1171C38.9476 106.594 37.0673 108.33 37.0673 110.644V114.26C37.0673 116.429 38.8029 118.31 41.1171 118.31H125.293C128.475 118.31 131.079 115.706 131.079 112.524V65.3741C131.079 63.7831 130.5 62.3368 129.343 61.3244L69.7544 1.73559C68.7419 0.578531 67.2956 0 65.7047 0C64.1137 0 62.6674 0.578531 61.6549 1.73559L2.06616 61.3244C0.909098 62.4814 0.330566 63.9277 0.330566 65.3741V131.905C0.330566 134.075 2.06616 135.955 4.23566 135.955Z" fill="white"/>
<path d="M24.6289 135.955H127.174C129.343 135.955 131.223 134.219 131.223 131.905V128.289C131.223 126.12 129.488 124.24 127.174 124.24H30.4142V75.0645L65.7046 39.6294L100.995 74.9199V96.0363C100.995 98.2058 102.731 100.086 105.045 100.086H108.661C110.83 100.086 112.71 98.3504 112.71 96.0363V72.6057C112.71 71.0148 112.132 69.5684 110.975 68.556L69.7544 27.4803C68.5973 26.3232 67.151 25.7447 65.7046 25.7447C64.2583 25.7447 62.6673 26.3232 61.6549 27.4803L20.5792 68.556C19.5667 69.5684 18.8436 71.1594 18.8436 72.6057V130.17C18.8436 133.352 21.447 135.955 24.6289 135.955Z" fill="white"/>
</svg>
