<svg width="53" height="53" viewBox="0 0 53 53" fill="none" xmlns="http://www.w3.org/2000/svg">
<path fill-rule="evenodd" clip-rule="evenodd" d="M39.2445 39.2446C46.4692 32.0199 46.4692 20.3063 39.2445 13.0816C32.0198 5.85691 20.3063 5.85691 13.0816 13.0816C5.8569 20.3063 5.8569 32.0199 13.0816 39.2446C20.3063 46.4693 32.0198 46.4693 39.2445 39.2446ZM26.5025 14.9908L20.1385 21.3548C19.748 21.7453 19.748 22.3784 20.1385 22.769C20.529 23.1595 21.1622 23.1595 21.5527 22.769L26.2096 18.1121V36.6283C26.2096 37.1806 26.6573 37.6283 27.2096 37.6283C27.7619 37.6283 28.2096 37.1806 28.2096 36.6283L28.2096 18.1121L32.8664 22.769C33.257 23.1595 33.8901 23.1595 34.2807 22.769C34.6712 22.3785 34.6712 21.7453 34.2807 21.3548L27.9167 14.9908C27.5262 14.6003 26.893 14.6003 26.5025 14.9908Z" fill="#F4B331"/>
</svg>
